<svg xmlns="http://www.w3.org/2000/svg" width="32" height="33" viewBox="0 0 32 33">
    <g fill="none" fill-rule="evenodd" transform="translate(0 .03)">
        <path fill="#FFF" d="M0 0H32V32H0z"/>
        <path fill="#A63489" fill-rule="nonzero" d="M11.333 16.933c0-.147.12-.266.267-.266h.4c1.065 0 1.936-.833 1.997-1.883l.003-.117v-.4c0-.148.12-.267.267-.267h.8c.129 0 .236.091.26.213l.006.054v.4l.004.117c.058 1.011.868 1.82 1.879 1.88l.117.003h.4c.13 0 .237.091.262.213l.005.053v.8c0 .148-.12.267-.267.267h-.4c-1.065 0-1.935.833-1.996 1.882l-.004.118v.4c0 .147-.12.267-.266.267h-.8c-.13 0-.237-.092-.262-.213L14 20.4V20l-.003-.118c-.059-1.01-.868-1.82-1.88-1.879L12 18h-.4c-.129 0-.236-.091-.261-.213l-.006-.054v-.8zm3.333-.995l-.028.052c-.327.578-.842 1.05-1.403 1.344.578.302 1.107.793 1.432 1.395.324-.602.853-1.093 1.431-1.396-.53-.277-1.018-.713-1.347-1.247l-.085-.148z"/>
        <rect width="3.333" height="3.333" x="22" y="24.667" fill="#ADD3A6" fill-rule="nonzero" rx="1"/>
        <rect width="2.667" height="2.667" x="4" y="6.667" fill="#ADD3A6" fill-rule="nonzero" rx="1"/>
        <path fill="#424750" fill-rule="nonzero" d="M16.667 9.333c3.313 0 6 2.687 6 6v4c0 3.314-2.687 6-6 6h-4c-3.314 0-6-2.686-6-6v-4c0-3.313 2.686-6 6-6zm0 1.334h-4C10.089 10.667 8 12.756 8 15.333v4C8 21.911 10.09 24 12.667 24h4c2.577 0 4.666-2.09 4.666-4.667v-4c0-2.577-2.089-4.666-4.666-4.666zm10.471 3.528c.24.24.259.619.056.88l-.056.063-2.667 2.667c-.26.26-.682.26-.942 0-.24-.24-.26-.619-.056-.88l.056-.063 2.666-2.667c.26-.26.683-.26.943 0zm1.333-6c.24.24.26.619.056.88l-.056.063-4 4c-.26.26-.682.26-.942 0-.24-.24-.26-.618-.056-.88l.056-.063 4-4c.26-.26.682-.26.942 0zm-.666-4c.24.24.259.619.055.88l-.055.063-4.667 4.667c-.26.26-.682.26-.943 0-.24-.24-.259-.619-.055-.88l.055-.063 4.667-4.667c.26-.26.682-.26.943 0zm-4-.666c.24.24.259.618.055.88l-.055.062-4 4c-.26.26-.683.26-.943 0-.24-.24-.259-.618-.056-.88l.056-.062 4-4c.26-.26.682-.26.943 0zm-6 1.333c.24.24.259.618.055.88l-.055.063-2.667 2.666c-.26.26-.682.26-.943 0-.24-.24-.259-.618-.055-.88l.055-.062 2.667-2.667c.26-.26.682-.26.943 0z"/>
        <path fill="#ADD3A6" fill-rule="nonzero" d="M5.333 18v1.333c0 3.986 3.18 7.23 7.141 7.331l.193.003h2V28h-2c-4.718 0-8.556-3.77-8.665-8.462L4 19.333V18h1.333z"/>
    </g>
</svg>
