<svg xmlns="http://www.w3.org/2000/svg" width="32" height="33" viewBox="0 0 32 33">
    <g fill="none" fill-rule="evenodd" transform="translate(0 .03)">
        <path fill="#FFF" d="M0 0H32V32H0z"/>
        <path fill="#A63489" fill-rule="nonzero" d="M4 6.933c0-.147.12-.266.267-.266h.4c1.065 0 1.935-.833 1.996-1.883l.004-.117v-.4c0-.148.12-.267.266-.267h.8c.13 0 .237.091.262.213L8 4.267v.4l.003.117c.059 1.011.868 1.82 1.88 1.88l.117.003h.4c.129 0 .236.091.261.213l.006.053v.8c0 .148-.12.267-.267.267H10c-1.065 0-1.936.833-1.997 1.882L8 10v.4c0 .147-.12.267-.267.267h-.8c-.129 0-.236-.092-.26-.213l-.006-.054V10l-.004-.118c-.058-1.01-.868-1.82-1.879-1.879L4.667 8h-.4c-.13 0-.237-.091-.262-.213L4 7.733v-.8zm3.333-.995l-.028.052c-.327.578-.842 1.05-1.403 1.344.578.302 1.107.793 1.432 1.395.324-.602.853-1.093 1.43-1.396-.529-.277-1.018-.713-1.346-1.247l-.085-.148z"/>
        <path fill="#424750" fill-rule="nonzero" d="M17.414 9.529l-.943.942-3.138-3.138 3.138-3.138.943.943-1.53 1.528h.783c5.523 0 10 4.478 10 10 0 5.524-4.477 10-10 10-5.453 0-9.887-4.364-9.998-9.79l-.002-.21H8c0 4.787 3.88 8.667 8.667 8.667 4.786 0 8.666-3.88 8.666-8.666 0-4.718-3.77-8.556-8.462-8.665L16.667 8h-.783l1.53 1.529z"/>
        <rect width="2.667" height="2.667" x="24.667" y="24.667" fill="#ADD3A6" fill-rule="nonzero" rx="1"/>
        <rect width="2" height="2" x="10.667" y="2" fill="#ADD3A6" fill-rule="nonzero" rx="1"/>
        <path fill="#ADD3A6" fill-rule="nonzero" d="M13.667 12.667C14.955 12.667 16 13.71 16 15c0 1.246-.976 2.263-2.205 2.33l-.128.003H12V16h1.667c.552 0 1-.448 1-1 0-.52-.397-.947-.904-.995L13.667 14h-2.334v-1.333h2.334z"/>
        <path fill="#ADD3A6" fill-rule="nonzero" d="M13.667 16C14.955 16 16 17.045 16 18.333c0 1.246-.976 2.264-2.205 2.33l-.128.004h-2.334v-1.334h2.334c.552 0 1-.447 1-1 0-.52-.397-.947-.904-.995l-.096-.005H12V16h1.667zM19.333 12.667c-1.472 0-2.666 1.194-2.666 2.666V18c0 1.473 1.194 2.667 2.666 2.667C20.806 20.667 22 19.473 22 18v-2.667c0-1.472-1.194-2.666-2.667-2.666zm0 1.333c.737 0 1.334.597 1.334 1.333V18c0 .736-.597 1.333-1.334 1.333-.736 0-1.333-.597-1.333-1.333v-2.667c0-.736.597-1.333 1.333-1.333z"/>
        <rect width="2" height="2" x="2" y="10.667" fill="#ADD3A6" fill-rule="nonzero" rx="1"/>
    </g>
</svg>
