<svg width="704" height="655" viewBox="0 0 704 655" fill="none" xmlns="http://www.w3.org/2000/svg">
<path fill-rule="evenodd" clip-rule="evenodd" d="M668.633 229.394H674.834C690.748 229.394 703.667 242.304 703.667 258.244V347.732C703.667 363.649 690.748 376.571 674.834 376.571H670.794C669.185 376.759 667.553 376.817 665.897 376.688C601.068 371.837 536.791 395.342 490.389 441.742C443.987 488.154 420.499 552.445 425.349 617.276C425.388 617.818 425.365 618.339 425.341 618.856C425.33 619.113 425.318 619.368 425.314 619.626H425.337V625.828C425.337 641.745 412.43 654.667 396.505 654.667H307.037C291.111 654.667 278.193 641.745 278.193 625.828V619.626L278.58 619.555C278.576 619.288 278.562 619.024 278.548 618.761C278.521 618.274 278.495 617.787 278.533 617.276C283.395 552.445 259.895 488.154 213.493 441.742C167.103 395.342 102.814 371.837 37.9856 376.688C36.3297 376.817 34.6972 376.759 33.1 376.571H29.1656C13.2403 376.571 0.333252 363.649 0.333252 347.732V258.244C0.333252 242.304 13.2403 229.394 29.1656 229.394H35.3549L35.3901 229.558C35.6235 229.552 35.8551 229.542 36.0862 229.533C36.7158 229.506 37.3413 229.48 37.9856 229.523C102.814 234.386 167.103 210.881 213.493 164.457C259.895 118.069 283.395 53.7661 278.533 -11.0767C278.492 -11.6679 278.521 -12.2532 278.55 -12.8326C278.562 -13.0705 278.573 -13.3075 278.58 -13.5435L278.193 -13.6258V-19.8281C278.193 -35.7569 291.111 -48.6667 307.037 -48.6667H396.505C412.43 -48.6667 425.337 -35.7569 425.337 -19.8281V-13.6258H425.302C425.309 -13.3717 425.321 -13.1196 425.333 -12.8684C425.362 -12.2719 425.391 -11.6801 425.349 -11.0767C420.499 53.7661 443.987 118.069 490.389 164.457C536.791 210.881 601.068 234.386 665.897 229.523C666.56 229.472 667.21 229.501 667.857 229.53C668.105 229.541 668.351 229.552 668.598 229.558L668.633 229.394ZM352.006 478.833C368.526 440.198 392.322 404.531 422.786 374.031C453.336 343.435 489.109 319.551 527.833 303C489.109 286.449 453.336 262.553 422.786 231.969C392.322 201.481 368.526 165.777 352.006 127.167C335.474 165.777 311.678 201.481 281.213 231.969C250.664 262.553 214.891 286.449 176.167 303C214.891 319.551 250.664 343.435 281.213 374.031C311.678 404.531 335.474 440.198 352.006 478.833Z" fill="url(#paint0_linear)"/>
<defs>
<linearGradient id="paint0_linear" x1="352" y1="-48.6667" x2="352" y2="654.667" gradientUnits="userSpaceOnUse">
<stop stop-color="#A8007D" stop-opacity="0.75"/>
<stop offset="1" stop-color="#D3009E" stop-opacity="0"/>
</linearGradient>
</defs>
</svg>
