<svg xmlns="http://www.w3.org/2000/svg" xmlns:xlink="http://www.w3.org/1999/xlink" width="158" height="34" viewBox="0 0 158 34">
    <defs>
        <path id="a" d="M60.922 26.145h7.651c.528 0 .962.4 1.018.913l.006.111v2.647c0 .528-.4.962-.912 1.018l-.112.006-1.303-.001.001 2.007c0 .528-.399.963-.912 1.018l-.111.006h-3c-.528 0-.962-.4-1.018-.913l-.006-.111v-2.007l-1.302.001c-.527 0-.961-.4-1.017-.913l-.006-.111v-2.647c0-.528.4-.962.912-1.018l.111-.006h7.651zM17.962 8.168c.565 0 1.024.459 1.024 1.025v6.672l.004.137a2.396 2.396 0 0 0 2.39 2.234h2.255a2.396 2.396 0 0 0 2.395-2.398V9.193c0-.565.458-1.024 1.022-1.024h3.002c.565 0 1.023.459 1.023 1.024v6.645c0 .839-.139 1.645-.394 2.398h1.396a2.396 2.396 0 0 0 2.39-2.234l.005-.164V9.193c0-.528.399-.962.91-1.018l.112-.006h3.002c.527 0 .961.4 1.017.912l.006.112v6.645c0 4.032-3.2 7.316-7.196 7.446l-.246.004h-1.273c-.529 0-1.03-.224-1.383-.61l-.113-.136-.807-1.07a7.408 7.408 0 0 1-4.868 1.816H21.38a7.425 7.425 0 0 1-2.394-.394v.516c0 4.114-3.332 7.45-7.442 7.45h-4.04c-4.11 0-7.44-3.336-7.44-7.45v-9.183c0-.567.458-1.025 1.023-1.025h2.999c.565 0 1.024.458 1.024 1.025v9.183a2.396 2.396 0 0 0 2.395 2.397h4.04a2.396 2.396 0 0 0 2.394-2.397V9.193c0-.566.459-1.025 1.024-1.025h2.999zm87.426-5.053h6.21c4.027 0 7.307 3.204 7.437 7.204l.004.246v7.67h9.87a2.396 2.396 0 0 0 2.39-2.233l.005-.164V9.193c0-.528.399-.962.91-1.018l.112-.006h3.002c.527 0 .961.4 1.016.912l.006.112v6.645c0 4.032-3.2 7.316-7.195 7.446l-.246.004h-7.243c-.529 0-1.03-.224-1.383-.61l-.112-.136-1.133-1.5.001 1.224c0 .527-.398.96-.91 1.016l-.11.006h-15.505v.102c0 4.115-3.331 7.45-7.44 7.45h-9.36c-4.11 0-7.442-3.335-7.442-7.45v-9.165c0-.565.458-1.023 1.022-1.023h3.003c.564 0 1.022.458 1.022 1.023v9.165a2.396 2.396 0 0 0 2.395 2.398h9.36a2.396 2.396 0 0 0 2.394-2.398v-.103h-3.575c-.528 0-.962-.399-1.018-.912l-.006-.112V19.26c0-.528.4-.963.912-1.019l.112-.006h20.1v-7.67a2.397 2.397 0 0 0-2.231-2.392l-.164-.005h-9.45a.751.751 0 0 1-.657-1.115l.058-.089 2.343-3.103c.319-.423.799-.689 1.32-.737l.176-.009h6.21zm1.232 23.03h3c.527 0 .962.4 1.017.913l.006.111v2.647c0 .528-.399.962-.912 1.018l-.111.006h-3c-.528 0-.962-.4-1.017-.913l-.006-.111v-2.647c0-.528.399-.962.911-1.018l.112-.006h3zm18.344 0h7.651c.528 0 .962.4 1.018.913l.006.111v2.647c0 .528-.4.962-.912 1.018l-.112.006h-7.65c-.528 0-.962-.4-1.018-.913l-.006-.111v-2.647c0-.528.4-.962.912-1.018l.111-.006h7.651zM59.172 0c.565 0 1.022.458 1.022 1.023v14.815c0 .839-.138 1.645-.393 2.398h7.798a2.396 2.396 0 0 0 2.39-2.234l.005-.164V9.193c0-.528.399-.962.91-1.018l.112-.006h3.002c.527 0 .961.4 1.016.912l.006.112v6.645c0 4.032-3.2 7.316-7.195 7.446l-.246.004h-7.652c-.529 0-1.03-.224-1.383-.61l-.113-.136-.816-1.082a7.408 7.408 0 0 1-4.882 1.828H42.635a1.023 1.023 0 0 1-1.022-1.024V19.26c0-.565.457-1.023 1.022-1.023h10.118a2.396 2.396 0 0 0 2.395-2.398V1.023C55.148.458 55.605 0 56.17 0h3.002zm90.387 3.115c4.11 0 7.441 3.336 7.441 7.45v5.273c0 4.114-3.332 7.45-7.441 7.45h-9.436a1.023 1.023 0 0 1-1.023-1.024V19.26c0-.565.458-1.023 1.023-1.023h9.436a2.396 2.396 0 0 0 2.395-2.398v-5.273a2.396 2.396 0 0 0-2.395-2.397h-9.436a1.023 1.023 0 0 1-1.023-1.024V4.139c0-.565.458-1.024 1.023-1.024h9.436zM41.765 0h3.252c.473 0 .893.288 1.067.72l.042.12 3.68 13.076c.14.502-.202 1-.701 1.064l-.11.007h-3.242c-.482 0-.91-.295-1.089-.734l-.042-.124L40.95 1.08a.849.849 0 0 1 .712-1.073L41.765 0h3.252z"/>
    </defs>
    <g fill="none" fill-rule="evenodd" transform="translate(1)">
        <mask id="b" fill="#fff">
            <use xlink:href="#a"/>
        </mask>
        <use fill="#D2004C" fill-opacity="0" xlink:href="#a"/>
        <g fill="#FFF" mask="url(#b)">
            <path d="M-1 0h158v34H-1z"/>
        </g>
    </g>
</svg>
