<svg width="165" height="32" viewBox="0 0 165 32" fill="none" xmlns="http://www.w3.org/2000/svg">
<path fill-rule="evenodd" clip-rule="evenodd" d="M71.0124 5.61867C71.024 6.5227 70.2728 7.27349 69.3592 7.27092C68.4663 7.26846 67.7304 6.5412 67.7192 5.65027C67.7079 4.74331 68.4559 3.99662 69.3723 4.00001C70.2712 4.00341 71.0009 4.72364 71.0124 5.61867ZM69.5948 20.4422C67.0657 20.4963 64.9656 18.3733 64.9299 15.9059C64.8926 13.3235 67.0531 11.2659 69.4513 11.218C71.9358 11.1684 74.1219 13.2304 74.162 15.7625C74.2014 18.2661 72.1222 20.4439 69.5948 20.4422ZM76.429 14.4403C75.7487 11.1687 72.9256 8.74685 69.3557 8.81334C67.779 8.84273 66.3339 9.36289 65.0997 10.3875C63.3075 11.8759 62.4671 13.8174 62.529 16.1117C62.568 17.5541 63.0223 18.9043 63.9312 20.0675C63.947 20.0877 63.9654 20.1071 63.9842 20.1269L63.9842 20.1269L63.9842 20.127C64.0559 20.2027 64.1336 20.2846 64.0959 20.4401C63.9281 20.4401 63.7598 20.4407 63.5913 20.4412C63.2103 20.4425 62.8279 20.4438 62.4455 20.4386C62.2744 20.4362 62.1032 20.4388 61.932 20.4415H61.932C61.5498 20.4474 61.1677 20.4533 60.7868 20.4028L60.755 20.3943C60.7157 20.3479 60.6744 20.3044 60.6064 20.3062C60.3121 19.9974 60.3137 19.6143 60.3153 19.2337V19.2337V19.2337C60.3155 19.1961 60.3156 19.1587 60.3155 19.1213C60.3111 17.7507 60.3075 16.3801 60.3039 15.0095V15.0094V15.0092V15.009V15.0088V15.0087C60.2997 13.4174 60.2955 11.8261 60.2901 10.2348C60.2896 10.0411 60.2851 9.84289 60.2453 9.65463C60.1027 8.98404 59.3823 8.56761 58.7279 8.76417C58.1222 8.94599 57.8195 9.38185 57.8181 10.0898C57.8143 12.0111 57.8116 13.9324 57.8088 15.8537V15.8539V15.8541V15.8544V15.8546V15.8548C57.8073 16.9409 57.8058 18.0271 57.804 19.1132C57.8022 20.2419 57.5429 20.477 56.3619 20.4414C55.9436 20.4289 55.7414 20.2375 55.6464 19.8318C55.6019 19.6413 55.5843 19.4492 55.5842 19.2533C55.5835 18.1311 55.5807 17.0087 55.5751 15.8864C55.5749 15.8421 55.5751 15.7976 55.5753 15.7532C55.5764 15.529 55.5775 15.3044 55.5231 15.0837C55.2578 12.5163 53.9505 10.6483 51.6952 9.43652C50.5788 8.83664 49.3661 8.61619 48.1037 8.61678C43.513 8.61879 38.9222 8.61819 34.3315 8.61759H34.3315C31.9911 8.61728 29.6506 8.61697 27.3102 8.61701C27.2813 8.61701 27.2523 8.61596 27.2232 8.61491C27.118 8.61111 27.0124 8.60729 26.9116 8.65295C26.8934 8.65669 26.8751 8.65976 26.8567 8.66282C26.817 8.66943 26.7774 8.67603 26.7401 8.68948C26.1202 8.91356 25.8002 9.45748 25.9155 10.0871C26.0193 10.6543 26.5047 11.0396 27.1324 11.0456C27.3545 11.0476 44.0245 11.0568 48.0963 11.0407C49.2764 11.036 50.3409 11.3342 51.2866 12.0378C53.4191 13.6241 53.8238 16.6092 52.0096 18.6387C51.012 19.7545 49.748 20.3027 48.2337 20.3006C41.3924 20.2913 27.2057 20.2716 27.1325 20.2709C26.4104 20.2637 25.8568 20.7797 25.8391 21.4726C25.8216 22.1535 26.3712 22.7118 27.0835 22.7275C27.2327 22.7308 34.5967 22.7284 41.2244 22.7261L41.2414 22.7261C43.8487 22.7252 46.341 22.7244 48.2339 22.724C48.4882 22.724 48.7439 22.7218 48.9966 22.6962C50.4912 22.5458 51.836 22.0283 52.9858 21.0432L52.9857 21.0433C53.1086 21.1455 53.0916 21.2721 53.0748 21.3969C53.0679 21.4484 53.061 21.4997 53.064 21.5488C53.0977 22.1055 53.2687 22.5725 53.8082 22.832C54.0441 22.9456 54.2949 22.9647 54.5514 22.9643L55.053 22.9637C56.3945 22.9621 57.7359 22.9605 59.0774 22.9633C60.9226 22.9674 62.7676 22.9526 64.6127 22.9378H64.6128H64.6129H64.6131H64.6132H64.6133C65.2044 22.933 65.7955 22.9283 66.3866 22.9242C66.9248 22.9205 67.4627 22.9077 68.0007 22.8949L68.001 22.8949H68.001H68.0011H68.0012H68.0012H68.0013C68.5526 22.8817 69.1038 22.8685 69.6552 22.8653C69.803 22.8645 70.8367 22.7184 71.2006 22.6398C74.9366 21.8327 77.1634 17.9726 76.429 14.4403ZM2.96083 15.6926C2.9613 13.3123 5.04508 11.0314 7.56321 11.1025C10.0984 11.0165 12.202 13.3052 12.1949 15.7083C12.1876 18.1494 10.0578 20.3102 7.59236 20.3173C5.10502 20.3246 2.96048 18.151 2.96083 15.6926ZM23.7476 9.73134C23.6529 8.87389 22.7457 8.37247 21.9749 8.75565C21.4772 9.00303 21.2854 9.42847 21.2834 9.96829C21.2812 10.5645 21.276 11.1608 21.2708 11.7571L21.2708 11.7576V11.7576V11.7576V11.7576V11.7577C21.2631 12.6427 21.2553 13.5277 21.2577 14.4126C21.259 14.8987 21.2567 15.3847 21.2545 15.8708C21.2493 16.9719 21.2442 18.073 21.2804 19.1742C21.3097 20.0613 20.92 20.3941 20.0321 20.2931C19.9641 20.2853 19.8972 20.2675 19.8305 20.2498L19.8304 20.2498C19.8105 20.2444 19.7905 20.2391 19.7705 20.2341C19.4795 20.1603 19.3137 19.9722 19.2507 19.68C19.1966 19.4291 19.1849 19.1767 19.1847 18.9213C19.182 15.9738 19.1772 13.0264 19.1724 10.0788L19.1724 10.07C19.1724 10.0448 19.1726 10.0195 19.1727 9.99414V9.99409C19.1734 9.89939 19.1741 9.80436 19.1626 9.71108C19.0594 8.87706 18.171 8.38371 17.413 8.74465C16.8729 9.00197 16.6991 9.46137 16.6987 10.034C16.6978 11.0868 16.692 12.1397 16.6861 13.1925C16.6804 14.2203 16.6746 15.2481 16.6736 16.276C16.6735 16.4275 16.6732 16.579 16.6729 16.7305V16.7307C16.6714 17.5371 16.6699 18.3436 16.6918 19.1505C16.7126 19.9144 16.631 20.0696 16.0189 20.297H12.9986C12.9965 20.2709 12.9941 20.2525 12.9924 20.2392L12.9924 20.2392L12.9924 20.2391L12.9924 20.2391C12.9899 20.2198 12.9888 20.2116 12.9924 20.2067L13.0511 20.1232L13.0511 20.1231C13.1346 20.0043 13.218 19.8854 13.3056 19.7698C14.08 18.7484 14.4641 17.5668 14.5697 16.3185C14.7372 14.3388 14.1981 12.5338 12.8478 11.0575C10.9392 8.97118 8.5677 8.25996 5.8077 8.91745C2.27712 9.75838 0.0471124 13.3241 0.655424 16.8489C0.937805 18.4853 1.67923 19.8657 2.91974 20.9711C3.95326 21.8921 5.17117 22.4203 6.53051 22.6431C6.56521 22.6488 6.60209 22.6505 6.6393 22.6522C6.76176 22.6577 6.88783 22.6634 6.95185 22.8137L6.02517 23.7439L4.16528 25.6111C4.15714 25.6194 4.14998 25.6285 4.14283 25.6376L4.13648 25.6457C3.7588 26.1183 3.77823 26.8131 4.1812 27.254C4.60653 27.7193 5.29632 27.7925 5.81144 27.4181C5.93511 27.3281 6.04556 27.2185 6.15487 27.11L6.17741 27.0877C6.43665 26.8309 6.69601 26.5742 6.95537 26.3175L6.95544 26.3174L6.9555 26.3174C8.0479 25.2362 9.14032 24.155 10.2236 23.0647C10.4326 22.8543 10.6422 22.7653 10.933 22.7784C11.5308 22.8055 12.1296 22.8192 12.7281 22.8177C14.8423 22.8121 16.9563 22.8032 19.0704 22.7943C19.9812 22.7905 20.892 22.7867 21.8028 22.7831C21.8836 22.7828 21.9644 22.7844 22.0452 22.786H22.0452H22.0453H22.0453H22.0454H22.0454C22.1743 22.7885 22.3031 22.791 22.4316 22.7858C23.2731 22.7523 23.7493 22.2586 23.7559 21.4127C23.7634 20.4541 23.7703 19.4957 23.7695 18.5371C23.7677 16.3653 23.7637 14.1935 23.7596 12.0216V12.0216V12.0215V12.0214V12.0213V12.0213L23.7559 10.0454L23.7561 9.98369V9.98361V9.98359C23.7565 9.89922 23.7569 9.81468 23.7476 9.73134ZM20.2992 25.8016C20.8088 24.8424 21.4877 24.4639 22.2876 24.6666C23.0396 24.8571 23.5604 25.51 23.5594 26.261C23.5583 27.0142 23.0157 27.6933 22.2861 27.8542C21.4292 28.0433 20.7898 27.6742 20.2902 26.685C20.0883 27.1801 19.7979 27.5763 19.2944 27.7767C18.9475 27.9149 18.5961 27.9339 18.2389 27.841C17.5377 27.6588 17.0193 26.9679 17.0309 26.2399C17.0427 25.5 17.5462 24.8683 18.2794 24.6732C19.0892 24.4578 19.7408 24.8167 20.2992 25.8016ZM58.8298 24.7083C57.9834 24.5215 57.2976 24.9063 56.8435 25.8541C56.2769 24.8653 55.64 24.5171 54.8089 24.7126C54.1339 24.8716 53.6147 25.5001 53.581 26.1992C53.5438 26.9706 53.979 27.6183 54.6943 27.8587C55.0478 27.9776 55.3999 27.9742 55.7508 27.8516C56.272 27.6693 56.6039 27.2888 56.8044 26.7502C57.4082 27.7747 58.073 28.1209 58.8948 27.8782C59.6458 27.6563 60.1054 27.0137 60.077 26.2252C60.0511 25.5032 59.5235 24.8614 58.8298 24.7083ZM13.939 24.6173C13.043 24.6278 12.3275 25.3553 12.3266 26.2567C12.3255 27.1761 13.0694 27.9176 13.9783 27.9035C14.8765 27.8897 15.5899 27.1639 15.5914 26.2622C15.5929 25.3424 14.8536 24.6065 13.939 24.6173ZM48.4757 16.2669C48.649 16.2713 48.8223 16.2758 48.9805 16.1569C49.2665 15.9418 49.3496 15.6597 49.2861 15.3244C49.2321 15.0397 48.9753 14.8027 48.6598 14.7576C48.5357 14.7398 48.4084 14.7416 48.2815 14.7434C48.2432 14.7439 48.2048 14.7444 48.1666 14.7444C41.9665 14.744 35.7663 14.744 29.5661 14.744C29.5333 14.744 29.5004 14.7428 29.4674 14.7416C29.395 14.7391 29.3226 14.7365 29.252 14.7463C28.9878 14.7833 28.8897 14.6653 28.8404 14.4109C28.7375 13.8796 28.5301 13.3814 28.2763 12.9028C28.2668 12.8849 28.2559 12.8673 28.2448 12.8494C28.2013 12.7793 28.1557 12.7058 28.1876 12.6022C28.2855 12.5331 28.3985 12.54 28.5104 12.5468C28.544 12.5488 28.5775 12.5509 28.6104 12.5508C30.5482 12.5503 32.4859 12.5511 34.4237 12.5518C39.1054 12.5538 43.7872 12.5557 48.4689 12.5382C49.9012 12.5328 51.2424 13.492 51.4989 15.0587C51.7261 16.4468 50.9554 17.7963 49.5967 18.3163C49.2455 18.4509 48.8791 18.5074 48.4989 18.5072C43.7586 18.5046 39.0182 18.5044 34.2779 18.5043C32.4287 18.5043 30.5795 18.5042 28.7303 18.504C28.6505 18.504 28.5707 18.4994 28.484 18.4944C28.442 18.4919 28.3983 18.4894 28.3523 18.4873C28.3641 18.3264 28.4153 18.2142 28.4633 18.1093C28.4781 18.0769 28.4926 18.0452 28.5055 18.0129C28.6783 17.5818 28.8326 17.1471 28.8977 16.6826C28.9555 16.271 28.9674 16.2708 29.3664 16.2666L29.3712 16.2665C29.4323 16.2658 29.4935 16.266 29.5546 16.2662C29.5833 16.2663 29.6121 16.2664 29.6408 16.2664L31.9863 16.2664C37.4495 16.2664 42.9127 16.2665 48.376 16.2652C48.4092 16.2652 48.4424 16.2661 48.4757 16.2669Z" fill="white"/>
<path d="M104.885 17.36C104.94 17.5945 104.967 17.84 104.967 18.0964C104.967 18.3036 104.948 18.5191 104.91 18.7427C104.817 19.25 104.635 19.7109 104.362 20.1255C103.713 21.1236 102.766 21.6227 101.523 21.6227C100.961 21.6227 100.435 21.5382 99.9436 21.3691C99.6109 21.2436 99.3082 21.08 99.0354 20.8782C98.3863 21.3745 97.6418 21.6227 96.8018 21.6227C96.3382 21.6227 95.9182 21.5709 95.5418 21.4673C95.5036 22.6945 95.1491 23.6982 94.4782 24.4782C94.0309 25.0018 93.4527 25.3945 92.7436 25.6564C92.0345 25.9073 91.23 26.0327 90.33 26.0327H88.4727C87.5891 26.0327 86.7845 25.8364 86.0591 25.4436C85.3336 25.0564 84.75 24.5082 84.3082 23.7991C84.0082 23.3027 83.7927 22.7655 83.6618 22.1873C83.5582 21.7182 83.5063 21.2218 83.5063 20.6982C83.5063 20.5673 83.5091 20.4364 83.5145 20.3055C83.5963 18.9364 84.0245 17.4773 84.7991 15.9282L87.1963 17.1145C86.58 18.3691 86.2445 19.4845 86.19 20.4609C86.1845 20.5591 86.1818 20.6545 86.1818 20.7473C86.1818 21.4073 86.3182 21.9527 86.5909 22.3836C86.8145 22.7436 87.1172 23.0027 87.4991 23.1609C87.7882 23.2864 88.1127 23.3491 88.4727 23.3491H90.33C91.3554 23.3491 92.0454 23.18 92.4 22.8418C92.7109 22.5473 92.8663 22.0018 92.8663 21.2055V15.9691H95.5418V17.9573C95.5418 18.6118 95.9018 18.9391 96.6218 18.9391C96.9218 18.9391 97.1591 18.8818 97.3336 18.7673C97.5791 18.6091 97.7018 18.3391 97.7018 17.9573V15.9691H100.385V17.9573C100.385 18.2955 100.448 18.5355 100.574 18.6773C100.721 18.8518 100.991 18.9391 101.384 18.9391C102.005 18.9391 102.316 18.7236 102.316 18.2927C102.316 18.2 102.303 18.0964 102.275 17.9818C101.965 16.7 101.763 15.8409 101.67 15.4045L104.272 14.7827C104.43 15.4373 104.635 16.2964 104.885 17.36ZM115.075 17.6709C115.075 18.1836 115.163 18.53 115.337 18.71C115.485 18.8627 115.749 18.9391 116.131 18.9391H116.401V21.6227H116.131C115.525 21.6227 114.977 21.5136 114.486 21.2955C114.099 21.1209 113.758 20.8864 113.464 20.5918C113.196 20.8155 112.866 21.0091 112.474 21.1727C111.743 21.4727 110.848 21.6227 109.79 21.6227H106.264V18.9391H109.79C110.946 18.9391 111.688 18.7427 112.015 18.35C112.266 18.0445 112.392 17.3682 112.392 16.3209V9.81636H115.075V17.6709ZM109.708 17.7609L107.033 17.9409L106.501 10.1518L109.176 9.97182L109.708 17.7609ZM123.101 17.4664C123.144 17.7282 123.166 17.9791 123.166 18.2191C123.166 18.9609 122.953 19.6264 122.528 20.2155C121.846 21.1536 120.736 21.6227 119.198 21.6227H115.999V18.9391H119.141C119.631 18.9391 119.978 18.8736 120.18 18.7427C120.387 18.6173 120.491 18.4182 120.491 18.1455C120.491 18.0636 120.48 17.9736 120.458 17.8755C120.403 17.5973 120.349 17.3136 120.294 17.0245C120.272 16.9155 120.251 16.7982 120.229 16.6727L120.196 16.5173L120.171 16.3618C120.09 15.9145 120.027 15.5955 119.983 15.4045L122.544 14.6273C122.708 15.3964 122.893 16.3427 123.101 17.4664ZM117.921 26.1636L116.301 24.5764L117.921 22.9073L119.541 24.5764L117.921 26.1636ZM121.448 26.1964L119.811 24.5764L121.472 22.9564L123.076 24.5764L121.448 26.1964ZM119.721 28.0864L118.298 26.6627L119.705 25.2555L121.129 26.6791L119.721 28.0864ZM136.715 14.03L136.036 16.6236C135.632 16.52 135.248 16.4573 134.882 16.4355C134.844 16.43 134.789 16.4273 134.719 16.4273C134.026 16.4273 133.442 16.6427 132.968 17.0736C132.488 17.5155 132.248 18.0636 132.248 18.7182C133.415 19.0455 134.29 19.2991 134.874 19.4791C135.294 19.61 135.599 19.7355 135.79 19.8555C136.118 20.0573 136.352 20.3082 136.494 20.6082C136.549 20.7227 136.587 20.8427 136.609 20.9682C136.63 21.0609 136.641 21.1591 136.641 21.2627C136.647 21.3609 136.649 21.4591 136.649 21.5573C136.649 24.5355 135.035 26.0245 131.806 26.0245H129.368C128.009 26.0245 126.864 25.5964 125.931 24.74C124.879 23.7745 124.352 22.4545 124.352 20.78C124.352 19.2582 124.78 17.6273 125.637 15.8873L128.042 17.0655C127.371 18.4455 127.036 19.5718 127.036 20.4445C127.036 20.81 127.055 21.1209 127.093 21.3773C127.148 21.7482 127.243 22.0618 127.379 22.3182C127.745 23 128.408 23.3409 129.368 23.3409H131.806C132.237 23.3409 132.605 23.3055 132.91 23.2345C133.309 23.1418 133.576 22.9891 133.712 22.7764C133.843 22.5745 133.919 22.3018 133.941 21.9582C133.876 21.9364 132.561 21.5873 129.998 20.9109C129.709 20.3655 129.564 19.6509 129.564 18.7673C129.564 17.6 129.954 16.5391 130.734 15.5845C131.727 14.3627 133.131 13.7518 134.948 13.7518C135.58 13.7518 136.169 13.8445 136.715 14.03ZM142.339 12.5818C142.481 12.8 142.672 13.0836 142.912 13.4327C143.545 14.3873 144.311 15.5382 145.211 16.8855C145.26 16.9618 145.312 17.0382 145.366 17.1145C145.437 17.2127 145.505 17.3109 145.571 17.4091C145.762 17.6709 145.942 17.9 146.111 18.0964C146.591 18.6636 146.959 18.9473 147.215 18.9473H147.788V21.6227H147.011C146.215 21.6227 145.454 21.2982 144.728 20.6491C144.494 20.9 144.226 21.1073 143.926 21.2709C143.37 21.5873 142.743 21.7455 142.045 21.7455C141.275 21.7455 140.321 21.6173 139.181 21.3609C138.821 21.2791 138.461 21.1891 138.101 21.0909C137.981 21.0582 137.869 21.0255 137.765 20.9927C137.727 20.9818 137.695 20.9736 137.667 20.9682L137.635 20.96L137.618 20.9518L138.412 18.3909C138.597 18.4455 138.815 18.5082 139.066 18.5791C139.388 18.6609 139.702 18.7345 140.007 18.8C140.847 18.98 141.526 19.07 142.045 19.07C142.454 19.07 142.724 18.9473 142.855 18.7018C142.898 18.6255 142.92 18.5464 142.92 18.4645C142.92 18.3227 142.863 18.1673 142.748 17.9982C142.268 17.2891 141.824 16.6291 141.415 16.0182C141.104 15.5545 140.812 15.1209 140.539 14.7173L139.901 13.76L142.143 12.2955L142.339 12.5818ZM154.027 18.1945C154.027 18.4564 154.09 18.6418 154.216 18.7509C154.357 18.8764 154.608 18.9391 154.968 18.9391H156.163V21.6227H154.968C154.614 21.6227 154.278 21.5845 153.962 21.5082C153.711 21.4482 153.477 21.3636 153.258 21.2545C153.007 21.1345 152.819 21.0145 152.694 20.8945C152.568 21.0145 152.367 21.1345 152.088 21.2545C151.537 21.5 150.883 21.6227 150.125 21.6227H147.376V18.9391H150.313C150.706 18.9391 150.981 18.8736 151.139 18.7427C151.281 18.6282 151.352 18.4455 151.352 18.1945V15.9691H154.027V18.1945ZM152.956 26.3518L151.352 24.7318L152.939 23.0955L154.576 24.7318L152.956 26.3518ZM149.503 26.36L147.899 24.74L149.478 23.1036L151.115 24.74L149.503 26.36ZM162.044 16.1082L162.028 15.92C162.011 15.7836 161.995 15.6609 161.979 15.5518C161.935 15.2627 161.872 15.02 161.79 14.8236C161.583 14.3055 161.215 14.0218 160.686 13.9727L160.604 13.9645H160.53C160.176 13.9645 159.895 14.0709 159.688 14.2836C159.502 14.48 159.41 14.7282 159.41 15.0282V15.1018C159.431 15.6309 159.699 15.9745 160.211 16.1327C160.533 16.2309 161.15 16.28 162.06 16.28L162.044 16.1082ZM160.678 11.42C162.167 11.42 163.247 12.0718 163.918 13.3755C164.42 14.3409 164.67 15.5927 164.67 17.1309C164.67 18.7836 164.038 19.9973 162.772 20.7718C161.84 21.3391 160.691 21.6227 159.328 21.6227H155.891V18.9391H159.328C160.239 18.9391 160.912 18.8791 161.349 18.7591C160.1 18.7591 159.08 18.4918 158.289 17.9573C157.35 17.3191 156.881 16.3809 156.881 15.1427C156.881 14.7773 156.933 14.4064 157.037 14.03C157.162 13.5718 157.356 13.1655 157.618 12.8109C158.289 11.8836 159.309 11.42 160.678 11.42ZM158.379 8.73636L160.08 7.01818L161.815 8.75273L160.089 10.4709L158.379 8.73636Z" fill="white"/>
</svg>
