<svg xmlns="http://www.w3.org/2000/svg" width="32" height="33" viewBox="0 0 32 33">
    <g fill="none" fill-rule="evenodd" transform="translate(0 .03)">
        <path fill="#FFF" d="M0 0H32V32H0z"/>
        <path fill="#A63489" fill-rule="nonzero" d="M8 10.267c0-.148.12-.267.267-.267h.4c1.065 0 1.935-.833 1.996-1.882L10.667 8v-.4c0-.147.12-.267.266-.267h.8c.13 0 .237.092.262.213L12 7.6V8l.003.118c.059 1.01.868 1.82 1.88 1.879L14 10h.4c.129 0 .236.091.261.213l.006.054v.8c0 .147-.12.266-.267.266H14c-1.065 0-1.936.833-1.997 1.883l-.003.117v.4c0 .148-.12.267-.267.267h-.8c-.129 0-.236-.091-.26-.213l-.006-.054v-.4l-.004-.117c-.058-1.011-.868-1.82-1.879-1.88l-.117-.003h-.4c-.13 0-.237-.091-.262-.213L8 11.067v-.8zm3.333-.996l-.028.053c-.327.578-.842 1.05-1.403 1.343.578.302 1.107.793 1.432 1.395.324-.602.853-1.093 1.43-1.396-.529-.276-1.018-.712-1.346-1.246l-.085-.149z"/>
        <path fill="#424750" fill-rule="nonzero" d="M18 15.333c1.065 0 1.936.833 1.997 1.883l.003.117V24c0 1.065-.833 1.936-1.882 1.997L18 26H4.667c-1.065 0-1.936-.833-1.997-1.882L2.667 24v-6.667c0-1.065.832-1.935 1.882-1.996l.118-.004H18zm0 1.334H4.667c-.342 0-.624.257-.663.589L4 17.333V20h4v1.333H4V24c0 .342.257.624.589.662l.078.005H18c.342 0 .624-.258.662-.59l.005-.077v-2.667h-4V20h4v-2.667c0-.368-.299-.666-.667-.666z"/>
        <path fill="#424750" fill-rule="nonzero" d="M20.495 12.862l-.943.943-3.138-3.138 3.138-3.138.943.942L18.965 10H26c1.793 0 3.255 1.415 3.33 3.189l.003.144V18c0 1.793-1.415 3.255-3.188 3.33l-.145.003h-6.667V20H26c1.065 0 1.936-.833 1.997-1.882L28 18v-4.667c0-1.065-.833-1.935-1.882-1.996L26 11.333h-7.034l1.53 1.529z"/>
        <rect width="2.667" height="2.667" x="6" y="5.333" fill="#ADD3A6" fill-rule="nonzero" rx="1"/>
        <path fill="#ADD3A6" fill-rule="nonzero" d="M11.333 18.667c1.105 0 2 .895 2 2 0 1.104-.895 2-2 2-1.104 0-2-.896-2-2 0-1.105.896-2 2-2z"/>
    </g>
</svg>
