<svg xmlns="http://www.w3.org/2000/svg" width="32" height="33" viewBox="0 0 32 33">
    <g fill="none" fill-rule="evenodd" transform="translate(0 .03)">
        <path fill="#FFF" d="M0 0H32V32H0z"/>
        <path fill="#424750" fill-rule="nonzero" d="M12 12v1.333H8c-2.946 0-5.333 2.388-5.333 5.334 0 2.831 2.21 5.156 5 5.323l.165.007.144.002c.176.003.342.074.464.197l.058.066 1.501 1.97 1.503-1.97c.107-.14.266-.232.439-.256l.088-.006c2.878-.015 5.215-2.31 5.302-5.168l.002-.165h1.334c0 3.482-2.67 6.342-6.078 6.64l-.219.016-1.84 2.414c-.249.327-.724.349-1.004.066l-.056-.066-1.84-2.414h-.012c-3.45-.195-6.187-3.009-6.282-6.47l-.003-.186c0-3.62 2.885-6.566 6.48-6.664L8 12h4zm16-8c1.473 0 2.667 1.194 2.667 2.667v8c0 1.472-1.194 2.666-2.667 2.666h-3.64l-1.83 2.404c-.249.327-.724.349-1.004.066l-.056-.066-1.833-2.404H16c-1.428 0-2.594-1.122-2.663-2.533l-.004-.133v-8C13.333 5.194 14.527 4 16 4zm0 1.333H16c-.736 0-1.333.597-1.333 1.334v8c0 .736.597 1.333 1.333 1.333h3.968c.208 0 .404.097.53.263L22 18.233l1.501-1.97c.11-.145.274-.238.453-.259l.077-.004H28c.736 0 1.333-.597 1.333-1.333v-8c0-.737-.597-1.334-1.333-1.334z"/>
        <path fill="#A63489" fill-rule="nonzero" d="M18.667 10.267c0-.148.12-.267.266-.267h.4c1.065 0 1.936-.833 1.997-1.882L21.333 8v-.4c0-.147.12-.267.267-.267h.8c.129 0 .236.092.261.213l.006.054V8l.003.118c.059 1.01.868 1.82 1.88 1.879l.117.003h.4c.129 0 .236.091.26.213l.006.054v.8c0 .147-.12.266-.266.266h-.4c-1.065 0-1.936.833-1.997 1.883l-.003.117v.4c0 .148-.12.267-.267.267h-.8c-.129 0-.236-.091-.261-.213l-.006-.054v-.4l-.003-.117c-.059-1.011-.868-1.82-1.88-1.88l-.117-.003h-.4c-.129 0-.236-.091-.26-.213l-.006-.053v-.8zm3.332-.996l-.027.053c-.327.578-.842 1.05-1.403 1.343.577.302 1.107.793 1.432 1.395.323-.602.853-1.093 1.43-1.396-.53-.276-1.018-.712-1.346-1.246l-.086-.149z"/>
        <circle cx="6.333" cy="18.667" r="1" fill="#ADD3A6" fill-rule="nonzero"/>
        <circle cx="13.667" cy="18.667" r="1" fill="#ADD3A6" fill-rule="nonzero"/>
        <circle cx="10" cy="18.667" r="1.333" fill="#ADD3A6" fill-rule="nonzero"/>
    </g>
</svg>
