<svg width="360" height="169" viewBox="0 0 360 169" fill="none" xmlns="http://www.w3.org/2000/svg">
<g opacity="0.32">
<path fill-rule="evenodd" clip-rule="evenodd" d="M315.057 148.604H317.702C324.49 148.604 330 154.111 330 160.91V199.08C330 205.869 324.49 211.381 317.702 211.381H315.979C315.292 211.461 314.596 211.486 313.89 211.431C286.238 209.362 258.821 219.388 239.029 239.179C219.236 258.976 209.218 286.398 211.286 314.052C211.303 314.283 211.293 314.505 211.283 314.725C211.278 314.835 211.273 314.944 211.271 315.054H211.281V317.699C211.281 324.488 205.776 330 198.983 330H160.821C154.029 330 148.518 324.488 148.518 317.699V315.054L148.684 315.024C148.682 314.909 148.676 314.797 148.67 314.685C148.658 314.477 148.647 314.27 148.663 314.052C150.737 286.398 140.714 258.976 120.921 239.179C101.134 219.388 73.7123 209.362 46.0602 211.431C45.3539 211.486 44.6576 211.461 43.9763 211.381H42.2982C35.5054 211.381 30 205.869 30 199.08V160.91C30 154.111 35.5054 148.604 42.2982 148.604H44.9381L44.9532 148.674C45.0527 148.672 45.1515 148.667 45.25 148.663C45.5186 148.652 45.7854 148.641 46.0602 148.659C73.7123 150.734 101.134 140.707 120.921 120.906C140.714 101.119 150.737 73.6918 148.663 46.0337C148.646 45.7815 148.658 45.5318 148.671 45.2847C148.676 45.1832 148.681 45.0821 148.684 44.9815L148.518 44.9464V42.3008C148.518 35.5066 154.029 30 160.821 30H198.983C205.776 30 211.281 35.5066 211.281 42.3008V44.9464H211.266C211.269 45.0548 211.275 45.1623 211.28 45.2694C211.292 45.5239 211.304 45.7763 211.286 46.0337C209.218 73.6918 219.236 101.119 239.029 120.906C258.821 140.707 286.238 150.734 313.89 148.659C314.172 148.637 314.45 148.65 314.726 148.662C314.831 148.667 314.937 148.671 315.042 148.674L315.057 148.604ZM180.003 255C187.049 238.521 197.199 223.307 210.193 210.298C223.224 197.247 238.482 187.06 255 180C238.482 172.94 223.224 162.748 210.193 149.702C197.199 136.698 187.049 121.469 180.003 105C172.951 121.469 162.801 136.698 149.807 149.702C136.776 162.748 121.518 172.94 105 180C121.518 187.06 136.776 197.247 149.807 210.298C162.801 223.307 172.951 238.521 180.003 255Z" fill="#A63489"/>
</g>
</svg>
