<svg xmlns="http://www.w3.org/2000/svg" xmlns:xlink="http://www.w3.org/1999/xlink" width="810" height="592" viewBox="0 0 810 592">
    <defs>
        <path id="if0umw17oa" d="M1 0H809V593H1z"/>
        <path id="sayfiqyysd" d="M33.975.3h531.55c18.557 0 33.6 15.043 33.6 33.6v384.3c0 18.557-15.043 33.6-33.6 33.6H33.975c-18.557 0-33.6-15.043-33.6-33.6V33.9C.375 15.343 15.418.3 33.975.3z"/>
        <path id="yi8m14tssf" d="M20.25 38.25H579.5c2.071 0 3.75 1.679 3.75 3.75v366.75c0 2.071-1.679 3.75-3.75 3.75H20.25c-2.071 0-3.75-1.679-3.75-3.75V42c0-2.071 1.679-3.75 3.75-3.75z"/>
        <path id="c48eme5vni" d="M12.5 38H587.5V93H12.5z"/>
        <path id="1skpuow93j" d="M40.951 15.38c.3 0 .548.218.595.504l.008.098v1.557c0 .3-.219.548-.505.594l-.098.008h-.766v1.18c0 .3-.218.548-.505.595l-.097.008h-1.766c-.3 0-.548-.219-.595-.505l-.008-.098v-1.18h-.766c-.3 0-.548-.218-.594-.505l-.008-.097v-1.557c0-.3.218-.548.504-.595l.098-.008h4.503zM11.161 4.804c.333 0 .603.27.603.603v3.927l.006.117c.068.715.67 1.275 1.403 1.275H14.5c.779 0 1.41-.632 1.41-1.41v-3.91c0-.332.27-.601.602-.601h1.767c.332 0 .602.27.602.602v3.908c0 .494-.082.968-.232 1.411h.822c.732 0 1.334-.56 1.403-1.275l.006-.135v-3.91c0-.299.218-.547.504-.594l.098-.007h1.767c.3 0 .547.218.594.504l.008.098v3.908c0 2.35-1.848 4.267-4.168 4.378l-.212.005h-.75c-.302 0-.59-.125-.797-.34l-.083-.099-.475-.63c-.768.666-1.77 1.069-2.866 1.069h-1.327c-.493 0-.967-.082-1.409-.232v.303c0 2.42-1.961 4.383-4.38 4.383H5.006c-2.42 0-4.38-1.962-4.38-4.383V8.37c0-.333.27-.603.603-.603h1.765c.332 0 .602.27.602.603v5.401c0 .78.631 1.41 1.41 1.41h2.378c.778 0 1.41-.63 1.41-1.41V5.408c0-.333.27-.603.602-.603h1.765zm55.115-2.972c2.348 0 4.264 1.848 4.375 4.17l.005.212v4.512h5.81c.732 0 1.334-.56 1.403-1.275l.006-.135v-3.91c0-.299.218-.547.504-.594l.098-.007h1.767c.299 0 .547.218.594.504l.008.098v3.908c0 2.35-1.848 4.267-4.168 4.378l-.213.005h-4.263c-.302 0-.59-.125-.797-.34l-.083-.099-.667-.881v.719c0 .298-.217.546-.502.593l-.098.008H60.93v.06c0 2.42-1.96 4.382-4.38 4.382H51.04c-2.419 0-4.38-1.962-4.38-4.382V8.368c0-.333.27-.602.602-.602h1.767c.332 0 .602.27.602.602v5.391c0 .779.63 1.41 1.41 1.41h5.508c.779 0 1.41-.631 1.41-1.41v-.06h-2.104c-.3 0-.548-.219-.595-.505l-.008-.098v-1.767c0-.3.219-.548.505-.594l.098-.008h11.83V6.215c0-.733-.559-1.336-1.273-1.404l-.136-.007h-5.563c-.336 0-.539-.355-.395-.638l.043-.07 1.38-1.825c.182-.242.454-.396.75-.43l.13-.008h3.655zm-1.164 13.546c.3 0 .547.219.594.505l.008.098v1.557c0 .3-.218.548-.505.594l-.097.008h-1.766c-.3 0-.548-.218-.595-.505l-.007-.097v-1.557c0-.3.218-.548.504-.595l.098-.008h1.766zm13.535 0c.3 0 .548.219.594.505l.008.098v1.557c0 .3-.218.548-.504.594l-.098.008h-4.504c-.299 0-.547-.218-.594-.505l-.008-.097v-1.557c0-.3.219-.548.505-.595l.097-.008h4.504zM35.417 0c.333 0 .602.27.602.602v8.714c0 .494-.081.968-.231 1.411h4.59c.733 0 1.335-.56 1.403-1.275l.006-.135v-3.91c0-.299.219-.547.505-.594l.097-.007h1.767c.3 0 .547.218.594.504l.008.098v3.908c0 2.35-1.847 4.267-4.168 4.378l-.212.005h-4.504c-.303 0-.59-.125-.797-.34l-.083-.099-.48-.636c-.77.67-1.775 1.075-2.875 1.075h-5.955c-.332 0-.602-.27-.602-.602v-1.768c0-.333.27-.602.602-.602h5.955c.779 0 1.41-.632 1.41-1.41V.602c0-.332.27-.602.602-.602h1.767zM88.62 1.833c2.419 0 4.38 1.961 4.38 4.382v3.101c0 2.42-1.961 4.383-4.38 4.383h-5.554c-.332 0-.602-.27-.602-.602v-1.768c0-.333.27-.602.602-.602h5.554c.778 0 1.41-.632 1.41-1.41V6.215c0-.78-.632-1.41-1.41-1.41h-5.554c-.332 0-.602-.27-.602-.603V2.435c0-.333.27-.602.602-.602h5.554zM27.086 0c.27 0 .51.16.619.4l.034.094 2.165 7.692c.082.29-.11.577-.396.623l-.08.007h-1.909c-.275 0-.52-.163-.63-.409l-.036-.096L24.692.634c-.082-.291.112-.581.4-.628l.08-.006h1.914z"/>
        <path id="pu32soz4zo" d="M54.72 22.8h68.46c5.567 0 10.08-4.513 10.08-10.605.057-1.077.918-1.938 1.992-1.995h16.488c8.814 0 15.96 7.146 15.96 15.96v309.12c0 8.814-7.146 15.96-15.96 15.96H26.16c-8.814 0-15.96-7.146-15.96-15.96V26.16c0-8.814 7.146-15.96 15.96-15.96h16.485c1.077.057 1.938.918 1.992 1.992C44.64 18.287 49.153 22.8 54.72 22.8z"/>
        <path id="cqtvvtyxwq" d="M28.622 10.766c.207 0 .378.149.414.346l.007.075v1.09c0 .207-.149.38-.345.415l-.076.007-.537-.001.001.827c0 .207-.149.38-.345.415l-.076.007h-1.234c-.207 0-.379-.15-.414-.346l-.007-.076v-.827h-.536c-.206 0-.378-.148-.414-.345l-.007-.076v-1.09c0-.207.15-.379.346-.415l.075-.006h3.148zM7.801 3.363c.232 0 .421.19.421.422v2.737c0 .545.44.987.985.987h.928c.544 0 .985-.442.985-.987V3.785c0-.232.188-.421.42-.421h1.235c.233 0 .421.189.421.421v2.736c0 .346-.057.678-.162.988h.574c.506 0 .922-.381.98-.872l.006-.115V3.785c0-.207.149-.379.345-.414l.075-.007h1.235c.207 0 .378.149.414.346l.007.075v2.737c0 1.633-1.275 2.969-2.882 3.062l-.18.005h-.523c-.207 0-.404-.083-.548-.229l-.068-.078-.332-.44c-.537.465-1.237.747-2.002.747h-.928c-.345 0-.677-.057-.986-.162l.001.212c0 1.694-1.37 3.068-3.061 3.068H3.499c-1.691 0-3.062-1.374-3.062-3.068V5.858c0-.233.189-.422.422-.422h1.233c.233 0 .422.189.422.422v3.781c0 .545.44.987.985.987H5.16c.544 0 .985-.442.985-.987V3.785c0-.233.188-.422.421-.422h1.234zm38.52-2.08c1.631 0 2.964 1.277 3.057 2.887l.005.18v3.158h4.06c.506 0 .922-.38.98-.871l.006-.115V3.785c0-.207.149-.379.345-.414l.075-.007h1.235c.207 0 .379.149.414.346l.007.075v2.737c0 1.633-1.275 2.969-2.882 3.062l-.18.005h-2.979c-.207 0-.404-.083-.548-.229l-.067-.078-.466-.616v.502c0 .207-.148.379-.344.414l-.076.007h-6.378v.042c0 1.694-1.37 3.068-3.061 3.068h-3.85c-1.691 0-3.062-1.374-3.062-3.068V5.857c0-.232.188-.421.42-.421h1.236c.232 0 .42.189.42.421v3.774c0 .546.441.988.985.988h3.85c.545 0 .986-.442.986-.988V9.59h-1.47c-.208 0-.38-.15-.415-.346l-.007-.076V7.931c0-.207.149-.38.345-.415l.076-.007h8.269V4.35c0-.506-.38-.923-.87-.98l-.115-.007h-3.888c-.23 0-.37-.236-.283-.432l.037-.063.964-1.278c.125-.166.31-.273.512-.3l.103-.007h2.555zm-.813 9.483c.207 0 .379.149.414.346l.007.075v1.09c0 .207-.149.38-.345.415l-.076.007h-1.234c-.207 0-.379-.15-.414-.346l-.007-.076v-1.09c0-.207.149-.379.345-.415l.076-.006h1.234zm9.46 0c.207 0 .379.149.415.346l.006.075v1.09c0 .207-.149.38-.345.415l-.076.007h-3.147c-.207 0-.379-.15-.414-.346l-.007-.076v-1.09c0-.207.149-.379.345-.415l.076-.006h3.147zM24.754 0c.233 0 .42.189.42.421v6.1c0 .346-.056.678-.161.988h3.208c.505 0 .922-.381.979-.872l.006-.115V3.785c0-.207.15-.379.345-.414l.076-.007h1.235c.206 0 .378.149.414.346l.006.075v2.737c0 1.633-1.274 2.969-2.881 3.062l-.18.005h-3.148c-.207 0-.404-.083-.548-.229l-.067-.078-.336-.445c-.538.468-1.24.752-2.009.752h-4.162c-.232 0-.42-.189-.42-.421V7.93c0-.233.188-.421.42-.421h4.163c.544 0 .985-.442.985-.987v-6.1c0-.233.188-.422.42-.422h1.235zM61.94 1.283C63.629 1.283 65 2.656 65 4.35v2.171c0 1.695-1.37 3.068-3.061 3.068h-3.882c-.232 0-.42-.189-.42-.421V7.93c0-.233.188-.421.42-.421h3.882c.544 0 .985-.442.985-.987V4.35c0-.545-.441-.987-.985-.987h-3.882c-.232 0-.42-.189-.42-.421V1.704c0-.233.188-.421.42-.421h3.882zM18.93 0c.182 0 .345.104.424.262l.032.084 1.514 5.384c.055.197-.07.392-.26.433l-.073.008h-1.334c-.19 0-.359-.11-.437-.278l-.028-.075L17.258.444c-.056-.198.07-.395.26-.436L17.594 0h1.338z"/>
        <linearGradient id="6n7ep2okbe" x1="83.569%" x2="83.569%" y1="99.665%" y2="72.622%">
            <stop offset="0%" stop-color="#F4F4F4"/>
            <stop offset="100%" stop-color="#FBFBFB"/>
        </linearGradient>
        <linearGradient id="cgu5wlodrn" x1="83.569%" x2="83.569%" y1="99.665%" y2="72.622%">
            <stop offset="0%" stop-color="#F4F4F4"/>
            <stop offset="100%" stop-color="#FBFBFB"/>
        </linearGradient>
        <linearGradient id="4rp5gvongs" x1="68.75%" x2="68.75%" y1="99.588%" y2=".234%">
            <stop offset="0%" stop-color="#FFF" stop-opacity="0"/>
            <stop offset="99.765%" stop-color="#FFF"/>
            <stop offset="100%" stop-color="#FFF"/>
        </linearGradient>
        <filter id="tbq0lt1fec" width="127.6%" height="136.5%" x="-13.8%" y="-15%" filterUnits="objectBoundingBox">
            <feOffset dy="15" in="SourceAlpha" result="shadowOffsetOuter1"/>
            <feGaussianBlur in="shadowOffsetOuter1" result="shadowBlurOuter1" stdDeviation="25"/>
            <feColorMatrix in="shadowBlurOuter1" result="shadowMatrixOuter1" values="0 0 0 0 0 0 0 0 0 0 0 0 0 0 0 0 0 0 0.11 0"/>
            <feOffset dy="5" in="SourceAlpha" result="shadowOffsetOuter2"/>
            <feGaussianBlur in="shadowOffsetOuter2" result="shadowBlurOuter2" stdDeviation="4.5"/>
            <feColorMatrix in="shadowBlurOuter2" result="shadowMatrixOuter2" values="0 0 0 0 0 0 0 0 0 0 0 0 0 0 0 0 0 0 0.0355659965 0"/>
            <feMerge>
                <feMergeNode in="shadowMatrixOuter1"/>
                <feMergeNode in="shadowMatrixOuter2"/>
            </feMerge>
        </filter>
        <filter id="3a8fiooahh" width="101.9%" height="120%" x="-1%" y="-6.4%" filterUnits="objectBoundingBox">
            <feOffset dy="2" in="SourceAlpha" result="shadowOffsetOuter1"/>
            <feGaussianBlur in="shadowOffsetOuter1" result="shadowBlurOuter1" stdDeviation="1.5"/>
            <feColorMatrix in="shadowBlurOuter1" values="0 0 0 0 0 0 0 0 0 0 0 0 0 0 0 0 0 0 0.0759396853 0"/>
        </filter>
        <filter id="rmvsmti4sl" width="155.7%" height="127.4%" x="-27.9%" y="-11.2%" filterUnits="objectBoundingBox">
            <feOffset dy="9" in="SourceAlpha" result="shadowOffsetOuter1"/>
            <feGaussianBlur in="shadowOffsetOuter1" result="shadowBlurOuter1" stdDeviation="15"/>
            <feColorMatrix in="shadowBlurOuter1" result="shadowMatrixOuter1" values="0 0 0 0 0 0 0 0 0 0 0 0 0 0 0 0 0 0 0.11 0"/>
            <feOffset dy="3" in="SourceAlpha" result="shadowOffsetOuter2"/>
            <feGaussianBlur in="shadowOffsetOuter2" result="shadowBlurOuter2" stdDeviation="2.5"/>
            <feColorMatrix in="shadowBlurOuter2" result="shadowMatrixOuter2" values="0 0 0 0 0 0 0 0 0 0 0 0 0 0 0 0 0 0 0.0355659965 0"/>
            <feMerge>
                <feMergeNode in="shadowMatrixOuter1"/>
                <feMergeNode in="shadowMatrixOuter2"/>
            </feMerge>
        </filter>
        <rect id="qp4fknxmem" width="177.66" height="361.2" x=".3" y=".24" rx="26.88"/>
    </defs>
    <g fill="none" fill-rule="evenodd" transform="translate(.814)">
        <mask id="g7wqrnh67b" fill="#fff">
            <use xlink:href="#if0umw17oa"/>
        </mask>
        <use fill="#FFF" fill-opacity="0" xlink:href="#if0umw17oa"/>
        <g mask="url(#g7wqrnh67b)">
            <g>
                <g transform="translate(18 1) rotate(-15 636.945 -279.006)">
                    <use fill="#000" filter="url(#tbq0lt1fec)" xlink:href="#sayfiqyysd"/>
                    <use fill="#FFF" xlink:href="#sayfiqyysd"/>
                    <use fill="url(#6n7ep2okbe)" xlink:href="#sayfiqyysd"/>
                    <mask id="kvthm7emqg" fill="#fff">
                        <use xlink:href="#yi8m14tssf"/>
                    </mask>
                    <path stroke="#E0E0E2" stroke-width="1.5" d="M579.5 37.5c1.243 0 2.368.504 3.182 1.318.814.814 1.318 1.94 1.318 3.182h0v366.75c0 1.243-.504 2.368-1.318 3.182-.814.814-1.94 1.318-3.182 1.318h0H20.25c-1.243 0-2.368-.504-3.182-1.318-.814-.814-1.318-1.94-1.318-3.182h0V42c0-1.243.504-2.368 1.318-3.182.814-.814 1.94-1.318 3.182-1.318h0z"/>
                    <rect width="151" height="195" x="34.5" y="140.25" fill="#F0F0F1" mask="url(#kvthm7emqg)" opacity=".5" rx="3.75"/>
                    <path fill="#F0F0F1" d="M34.5 384H567.5V429H34.5z" mask="url(#kvthm7emqg)"/>
                    <g mask="url(#kvthm7emqg)">
                        <use fill="#000" filter="url(#3a8fiooahh)" xlink:href="#c48eme5vni"/>
                        <use fill="#FFF" xlink:href="#c48eme5vni"/>
                    </g>
                    <g fill="#EE384E" mask="url(#kvthm7emqg)">
                        <path d="M551.023 56.974h2.863v-3.762h-2.863c-.494 0-.955.455-.955.94v1.882c0 .485.46.94.955.94zm11.454 0h2.864v-3.762h-2.864c-.494 0-.954.455-.954.94v1.882c0 .485.46.94.954.94zm-6.682-5.172v6.583c0 .207-.266.47-.477.47l-.954.01c-.212 0-.478-.273-.478-.48v-.314l-.433.513c-.132.176-.457.271-.68.271h-1.75c-1.536 0-2.864-1.312-2.864-2.821v-1.881c0-1.51 1.328-2.821 2.864-2.821h4.295c.211 0 .477.263.477.47zm11.455 0v6.583c0 .207-.266.47-.477.47l-.955.01c-.211 0-.477-.273-.477-.48v-.314l-.433.513c-.132.176-.458.271-.68.271h-1.75c-1.536 0-2.864-1.312-2.864-2.821v-1.881c0-1.51 1.328-2.821 2.863-2.821h4.296c.21 0 .477.263.477.47zm-31.818 1.41h-2.864c-.494 0-.954.455-.954.94v1.882c0 .486.46.94.954.94h2.864v-3.762zm1.909-1.41v7.21c0 1.509-1.328 2.664-2.864 2.664h-1.475c-.22 0-.427-.1-.56-.273l-.84-1.093c-.139-.181-.06-.515.17-.515h2.705c.494 0 .955-.298.955-.783v-.157h-2.864c-1.535 0-2.863-1.312-2.863-2.821v-1.881c0-1.51 1.328-2.821 2.863-2.821h1.75c.22 0 .458.173.612.313l.502.47v-.313c0-.207.266-.47.477-.47h.955c.21 0 .477.262.477.47zm-17.182 4.232c0 .485.46.94.955.94h2.863v-3.762h-2.863c-.494 0-.955.455-.955.94v1.882zm5.25-7.21c.211 0 .477.262.477.47v9.09c0 .208-.266.471-.477.471h-.954c-.212 0-.478-.263-.478-.47v-.314l-.5.528c-.136.148-.397.256-.613.256h-1.75c-1.536 0-2.864-1.312-2.864-2.821v-1.867c0-1.51 1.328-2.835 2.864-2.835h2.863v-2.038c0-.208.266-.47.478-.47h.954zm19.727 6.27l2.657-3.314c.148-.18.017-.45-.218-.45h-1.52c-.115 0-.224.052-.296.14l-2.69 3.31v-5.486c0-.208-.267-.47-.478-.47h-.955c-.21 0-.477.262-.477.47v9.09c0 .208.266.471.477.471h.955c.211 0 .477-.263.477-.47v-2.978l2.692 3.318c.073.088.182.14.298.14h1.518c.236 0 .367-.269.219-.45l-2.659-3.322zm-6.363-6.27c-.211 0-.478.262-.478.47v.94c0 .208.267.47.478.47h.954c.211 0 .478-.262.478-.47v-.94c0-.208-.267-.47-.478-.47h-.954zm0 2.508c-.211 0-.478.262-.478.47v6.583c0 .207.341.48.553.48l.88-.01c.21 0 .477-.263.477-.47v-6.583c0-.208-.267-.47-.478-.47h-.954zm-11.455-2.508c-.211 0-.477.262-.477.47v.94c0 .208.266.47.477.47h.955c.21 0 .477-.262.477-.47v-.94c0-.208-.266-.47-.477-.47h-.955zm0 2.508c-.211 0-.477.262-.477.47v6.583c0 .207.266.47.477.47h.955c.21 0 .477-.263.477-.47v-6.583c0-.208-.266-.47-.477-.47h-.955zm31.341-2.038v9.09c0 .208-.266.471-.477.471h-.955c-.21 0-.477-.263-.477-.47v-9.091c0-.208.266-.47.477-.47h.955c.211 0 .477.262.477.47z"/>
                    </g>
                    <rect width="268.25" height="20.25" x="241.75" y="45" fill="#F0F0F1" mask="url(#kvthm7emqg)" rx="2.25"/>
                    <rect width="54" height="10.5" x="177.25" y="49.875" fill="#F0F0F1" mask="url(#kvthm7emqg)" rx="2.25"/>
                    <path fill="#F0F0F1" d="M109.5 114.75L378.5 114.75 378.5 130.25 109.5 130.25z" mask="url(#kvthm7emqg)"/>
                    <path fill="#F37A8A" d="M489.25 114.75H566.5V125.25H489.25z" mask="url(#kvthm7emqg)" opacity=".1"/>
                    <path fill="#F0F0F1" d="M323.5 310H378.5V334.75H323.5z" mask="url(#kvthm7emqg)" opacity=".5"/>
                    <path fill="#7CB2AB" d="M542.5 310H567.25V334.75H542.5zM511.75 310H536.5V334.75H511.75zM481 310H505.75V334.75H481zM450.25 310H475V334.75H450.25z" mask="url(#kvthm7emqg)" opacity=".1"/>
                    <path fill="#F0F0F1" d="M264.5 310H318.5V334.75H264.5zM204.5 310H259.5V334.75H204.5z" mask="url(#kvthm7emqg)" opacity=".5"/>
                    <path fill="#F0F0F1" d="M320.75 145.25H378.5V156.25H320.75zM289.25 166H378.5V178H289.25zM477 360H566.25V372H477zM323.75 187H378.5V193H323.75zM338 203H378.5V209H338zM330.5 218H378.5V224H330.5zM257 145.25H314.75V156.25H257zM74.5 159.25H147.5V167.25H74.5zM50.5 189.25H147.5V197.25H50.5z" mask="url(#kvthm7emqg)"/>
                    <circle cx="166" cy="162.75" r="7.5" fill="#F0F0F1" mask="url(#kvthm7emqg)"/>
                    <ellipse cx="166" cy="193.25" fill="#F0F0F1" mask="url(#kvthm7emqg)" rx="7.5" ry="8"/>
                    <path fill="#F0F0F1" d="M74.5 220.25H147.5V227.25H74.5zM100.5 316.25H173.5V324.25H100.5zM45.5 316.25H68.5V324.25H45.5z" mask="url(#kvthm7emqg)"/>
                    <path fill="#FFF" d="M45.5 248.25H100.5V255.25H45.5zM45.5 259.25H140.5V273.25H45.5z" mask="url(#kvthm7emqg)"/>
                    <rect width="128" height="26" x="45.5" y="284.25" fill="#EF5662" mask="url(#kvthm7emqg)" rx="2.25"/>
                    <path fill="#FFF" d="M147.5 284.25h23.75c1.243 0 2.25 1.007 2.25 2.25V308c0 1.243-1.007 2.25-2.25 2.25H147.5v-26z" mask="url(#kvthm7emqg)" opacity=".152"/>
                    <circle cx="166" cy="223.75" r="7.5" fill="#F0F0F1" mask="url(#kvthm7emqg)"/>
                    <rect width="18" height="18" x="31.5" y="45.75" fill="#F0F0F1" mask="url(#kvthm7emqg)" rx="9"/>
                    <rect width="70.5" height="12.75" x="31.5" y="70.5" fill="#F0F0F1" mask="url(#kvthm7emqg)" rx="2.25"/>
                    <rect width="18" height="18" x="55.5" y="45.75" fill="#F0F0F1" mask="url(#kvthm7emqg)" rx="9"/>
                    <path fill="#F0F0F1" d="M521.75 76.5H567.5V82.5H521.75zM471.5 76.5H509.75V82.5H471.5zM413.75 76.5H459.5V82.5H413.75zM377 76.5H401.75V82.5H377z" mask="url(#kvthm7emqg)"/>
                    <path fill="#FFF" d="M71.5 293.25H126.5V301.25H71.5z" mask="url(#kvthm7emqg)" opacity=".5"/>
                    <g fill="#FFF" fill-rule="nonzero" mask="url(#kvthm7emqg)">
                        <path d="M164.25 300.458c-.598 0-1.083.485-1.083 1.084 0 .598.485 1.083 1.083 1.083s1.083-.485 1.083-1.083c0-.599-.485-1.084-1.083-1.084zm-7.042 0c-.598 0-1.083.485-1.083 1.084 0 .598.485 1.083 1.083 1.083.599 0 1.084-.485 1.084-1.083 0-.599-.485-1.084-1.084-1.084zm8.125-7.041h1.084v-1.084h-1.625c-.3 0-.542.243-.542.542v.542h-8.125c-.32 0-.57.276-.539.595l.542 5.417c.027.277.26.488.539.488h8.125c.299 0 .541-.243.541-.542v-5.958zm-1.083 1.083v4.333h-7.093l-.433-4.333h7.526z"/>
                    </g>
                    <path fill="#7CB2AB" d="M534.165 251.75h-104.83c-2.946 0-5.335-2.37-5.335-5.294v-68.162c0-2.924 2.389-5.294 5.335-5.294h104.83c2.946 0 5.335 2.37 5.335 5.294v68.162c0 2.924-2.389 5.294-5.335 5.294" mask="url(#kvthm7emqg)"/>
                    <path fill="#FFF" d="M429.25 244.25L532.75 244.25 532.75 178.25 429.25 178.25z" mask="url(#kvthm7emqg)"/>
                    <path fill="#F4F4F6" d="M479.5 149.625c0-.621.504-1.125 1.125-1.125s1.125.504 1.125 1.125-.504 1.125-1.125 1.125-1.125-.504-1.125-1.125" mask="url(#kvthm7emqg)"/>
                    <path fill="#648495" d="M542.94 258.5H420.56c-2.657 0-4.81-1.87-4.81-4.175v-2.575h132v2.575c0 2.306-2.153 4.175-4.81 4.175" mask="url(#kvthm7emqg)"/>
                    <path fill="#F4F4F6" d="M489.819 254H472.93c-.514 0-.931-.457-.931-1.021v-1.229h18.75v1.229c0 .564-.417 1.021-.931 1.021M429.25 188L532.75 188 532.75 178.25 429.25 178.25zM501.25 211.25L528.25 211.25 528.25 194.75 501.25 194.75zM433.75 237.5L465.25 237.5 465.25 194.75 433.75 194.75zM469.75 220.25L528.25 220.25 528.25 215.75 469.75 215.75zM469.75 227L528.25 227 528.25 222.5 469.75 222.5z" mask="url(#kvthm7emqg)"/>
                    <path fill="#B8D3D0" d="M444.25 222.489L452.496 210.5 463 222.5z" mask="url(#kvthm7emqg)"/>
                    <path fill="#7CB2AB" d="M437.5 222.489L447.995 210.5 458.5 222.5 437.5 222.489" mask="url(#kvthm7emqg)"/>
                    <path fill="#FF9675" d="M448.75 208.625c0-.621.504-1.125 1.125-1.125s1.125.504 1.125 1.125-.504 1.125-1.125 1.125-1.125-.504-1.125-1.125" mask="url(#kvthm7emqg)"/>
                    <path fill="#F0F0F1" fill-rule="nonzero" d="M390.75 114L390 114 390 334.75 390.75 334.75z" mask="url(#kvthm7emqg)"/>
                    <g fill="#A63489" fill-rule="nonzero" mask="url(#kvthm7emqg)">
                        <path d="M378 277v1.333h-9.334v4h2v1.334h-3.333v-5.334H366c-.335 0-.612.247-.66.568l-.007.099v8c0 .368.299.667.667.667h7.333c.369 0 .667-.299.667-.667v-2h1.333v2c0 1.105-.895 2-2 2H366c-1.105 0-2-.895-2-2v-8c0-1.105.895-2 2-2h12zm-2 6v1.333h-3.333V283H376zm.667-2v1.333H374V281h2.667zm.666-2v1.333h-4.666V279h4.666z"/>
                    </g>
                    <g mask="url(#kvthm7emqg)">
                        <g transform="translate(283.936 250.128)">
                            <mask id="56ncxfe2lk" fill="#fff">
                                <use xlink:href="#1skpuow93j"/>
                            </mask>
                            <use fill="#D2004C" fill-opacity="0" xlink:href="#1skpuow93j"/>
                            <g mask="url(#56ncxfe2lk)">
                                <path fill="#A63489" d="M0 0H93V20H0z"/>
                            </g>
                        </g>
                    </g>
                    <g fill="#A63489" fill-rule="nonzero" mask="url(#kvthm7emqg)">
                        <path d="M346.862 278.529l.943.942-1.529 1.529h1.057c1.428 0 2.594 1.123 2.664 2.534l.003.133V285c0 1.473-1.194 2.667-2.667 2.667h-8v-1.334h8c.737 0 1.334-.597 1.334-1.333v-1.333c0-.737-.597-1.334-1.334-1.334h-1.057l1.529 1.529-.943.943-2.667-2.667c-.26-.26-.26-.682 0-.943l2.667-2.666zm-4.195-.196c.368 0 .666.299.666.667v5.333c0 .369-.298.667-.666.667h-8c-.369 0-.667-.298-.667-.667V279c0-.368.298-.667.667-.667h8zm-.667 1.334h-6.667V281h1.334v1.333h-1.334v1.334H342v-1.334h-1.333V281H342v-1.333zm-3.333.666c.736 0 1.333.597 1.333 1.334 0 .736-.597 1.333-1.333 1.333-.737 0-1.334-.597-1.334-1.333 0-.737.597-1.334 1.334-1.334z"/>
                    </g>
                    <g fill="#A63489" fill-rule="nonzero" mask="url(#kvthm7emqg)">
                        <path d="M310 276.333h8c1.065 0 1.936.833 1.997 1.883l.003.117v7.334c0 1.065-.833 1.935-1.882 1.996l-.118.004v-1.334c.342 0 .624-.257.662-.589l.005-.077v-7.334c0-.342-.258-.623-.59-.662l-.077-.004h-1.333V281h-5.334v-3.333H310c-.342 0-.624.257-.662.589l-.005.077v7.334c0 .342.258.623.59.662l.077.004h1.333c.369 0 .667.299.667.667 0 1.105.895 2 2 2s2-.895 2-2c0-1.003-.738-1.833-1.7-1.978l.838.84-.943.943-2-2c-.24-.24-.259-.619-.055-.88l.055-.063 2-2 .943.943-.872.872c1.716.136 3.067 1.572 3.067 3.323 0 1.84-1.492 3.333-3.333 3.333-1.562 0-2.873-1.074-3.235-2.525l-.032-.141H310c-1.065 0-1.936-.833-1.997-1.883l-.003-.117v-7.334c0-1.065.833-1.935 1.882-1.996l.118-.004h8-8zm5.333 1.334h-2.666v2h2.666v-2z"/>
                    </g>
                </g>
                <g transform="translate(18 1) rotate(-15 232.532 29.893)">
                    <use fill="#000" filter="url(#rmvsmti4sl)" xlink:href="#qp4fknxmem"/>
                    <use fill="#FFF" xlink:href="#qp4fknxmem"/>
                    <use fill="url(#cgu5wlodrn)" xlink:href="#qp4fknxmem"/>
                    <mask id="2t10vgcndp" fill="#fff">
                        <use xlink:href="#pu32soz4zo"/>
                    </mask>
                    <path stroke="#F0F0F1" stroke-width=".9" d="M42.656 9.75c.659.032 1.251.311 1.687.747.433.433.71 1.02.744 1.673.002 2.914 1.058 5.437 2.778 7.246 1.745 1.836 4.172 2.934 6.855 2.934h68.46c2.683 0 5.11-1.098 6.855-2.934 1.719-1.808 2.775-4.33 2.775-7.221.035-.677.313-1.264.746-1.698.436-.436 1.028-.715 1.685-.747h16.499c4.531 0 8.634 1.837 11.604 4.806 2.97 2.97 4.806 7.073 4.806 11.604h0v309.12c0 4.531-1.837 8.634-4.806 11.604-2.97 2.97-7.073 4.806-11.604 4.806h0H26.16c-4.531 0-8.634-1.837-11.604-4.806-2.97-2.97-4.806-7.073-4.806-11.604h0V26.16c0-4.531 1.837-8.634 4.806-11.604 2.97-2.97 7.073-4.806 11.604-4.806h0z"/>
                    <g mask="url(#2t10vgcndp)">
                        <g>
                            <path fill="#81858B" d="M52.12 38.484v26.83c3.335-.04 6.225-1.93 7.694-4.692.271.166.584.276.936.275h.372c.642 0 1.177-.351 1.498-.785.328-.439.5-.982.503-1.565V32.95h-.994c-.539 0-.972-.442-.967-.981.004-.107.004-.218.004-.325 0-15.368-12.459-27.825-27.826-27.825-15.366 0-27.824 12.457-27.824 27.825 0 .107 0 .218.002.325.008.539-.426.981-.967.981h-.992v25.598c.002.583.171 1.126.502 1.565.32.434.856.786 1.498.785h.373c.323 0 .616-.089.872-.23 1.475 2.737 4.357 4.607 7.679 4.647v-26.83c-2.618.032-4.952 1.205-6.551 3.036v-7.628c.813-.157 1.42-.841 1.5-1.672l.018-.09-.002-.295c0-6.6 2.673-12.566 6.998-16.892 4.326-4.326 10.294-6.997 16.894-6.998 6.6 0 12.565 2.672 16.892 6.998 4.326 4.326 6.997 10.294 6.997 16.893v.21c.002.907.646 1.677 1.519 1.846v7.719c-1.598-1.885-3.971-3.095-6.629-3.127" transform="translate(55.2 132.6)"/>
                            <path fill="#00BFD6" d="M62.129 32.949h1.88c.528 0 .962-.424.97-.953.003-.118.003-.235.003-.353C64.982 14.167 50.814 0 33.34 0 15.865 0 1.697 14.167 1.697 31.643c0 .118.002.235.005.353.009.53.44.953.97.953H4.55c.54 0 .975-.442.967-.981-.002-.107-.002-.218-.002-.325 0-15.368 12.458-27.825 27.824-27.825 15.367 0 27.826 12.457 27.826 27.825 0 .107 0 .218-.004.325-.005.539.428.981.967.981" transform="translate(55.2 132.6)"/>
                            <path fill="#616E7D" d="M0 53.575c0 1.77 1.424 3.206 3.19 3.227v-9.806C1.425 47.018 0 48.454 0 50.225v3.35M63.497 56.802c1.766-.02 3.191-1.457 3.191-3.227v-3.35c0-1.771-1.425-3.207-3.191-3.229v9.806" transform="translate(55.2 132.6)"/>
                            <path fill="#00BFD6" d="M15.054 38.48v26.922h3.252c.51 0 .922-.413.922-.92V39.399c0-.508-.411-.92-.922-.92h-3.252M47.317 39.4v25.082c0 .507.412.92.92.92h3.254V38.48h-3.254c-.508 0-.92.41-.92.92" transform="translate(55.2 132.6)"/>
                        </g>
                    </g>
                    <path fill="#F0F0F1" fill-rule="nonzero" d="M158.4 268.8L158.4 268.2 18.6 268.2 18.6 268.8zM158.4 303L158.4 302.4 18.6 302.4 18.6 303z" mask="url(#2t10vgcndp)"/>
                    <g fill="#A63489" fill-rule="nonzero" mask="url(#2t10vgcndp)">
                        <path d="M73.2 280.2v1.2h-8.4v3.6h1.8v1.2h-3v-4.8h-1.2c-.298 0-.546.218-.592.503L61.8 282v7.2c0 .331.269.6.6.6H69c.331 0 .6-.269.6-.6v-1.8h1.2v1.8c0 .994-.806 1.8-1.8 1.8h-6.6c-.994 0-1.8-.806-1.8-1.8V282c0-.994.806-1.8 1.8-1.8h10.8zm-1.8 5.4v1.2h-3v-1.2h3zm.6-1.8v1.2h-2.4v-1.2H72zm.6-1.8v1.2h-4.2V282h4.2z"/>
                    </g>
                    <g mask="url(#2t10vgcndp)">
                        <g transform="translate(93.459 279.207)">
                            <mask id="21tire4f6r" fill="#fff">
                                <use xlink:href="#cqtvvtyxwq"/>
                            </mask>
                            <use fill="#D2004C" fill-opacity="0" xlink:href="#cqtvvtyxwq"/>
                            <g mask="url(#21tire4f6r)">
                                <path fill="#A63489" d="M0 0H65V14H0z"/>
                            </g>
                        </g>
                    </g>
                    <g fill="#A63489" fill-rule="nonzero" mask="url(#2t10vgcndp)">
                        <path d="M50.576 281.576l.848.848-1.376 1.376H51c1.285 0 2.335 1.01 2.397 2.28l.003.12v1.2c0 1.325-1.075 2.4-2.4 2.4h-7.2v-1.2H51c.663 0 1.2-.537 1.2-1.2v-1.2c0-.663-.537-1.2-1.2-1.2h-.952l1.376 1.376-.848.848-2.4-2.4c-.235-.234-.235-.614 0-.848l2.4-2.4zM46.8 281.4c.331 0 .6.269.6.6v4.8c0 .331-.269.6-.6.6h-7.2c-.331 0-.6-.269-.6-.6V282c0-.331.269-.6.6-.6h7.2zm-.6 1.2h-6v1.2h1.2v1.2h-1.2v1.2h6V285H45v-1.2h1.2v-1.2zm-3 .6c.663 0 1.2.537 1.2 1.2 0 .663-.537 1.2-1.2 1.2-.663 0-1.2-.537-1.2-1.2 0-.663.537-1.2 1.2-1.2z"/>
                    </g>
                    <g fill="#A63489" fill-rule="nonzero" mask="url(#2t10vgcndp)">
                        <path d="M22.8 279.6H30c.959 0 1.742.75 1.797 1.694l.003.106v6.6c0 .959-.75 1.742-1.694 1.797L30 289.8v-1.2c.308 0 .561-.232.596-.53l.004-.07v-6.6c0-.308-.232-.561-.53-.596L30 280.8h-1.2v3H24v-3h-1.2c-.308 0-.561.232-.596.53l-.004.07v6.6c0 .308.232.561.53.596l.07.004H24c.331 0 .6.269.6.6 0 .994.806 1.8 1.8 1.8s1.8-.806 1.8-1.8c0-.903-.664-1.65-1.53-1.78l.754.756-.848.848-1.8-1.8c-.217-.216-.233-.556-.05-.792l.05-.056 1.8-1.8.848.848-.785.785c1.545.122 2.761 1.415 2.761 2.991 0 1.657-1.343 3-3 3-1.406 0-2.586-.967-2.911-2.273l-.029-.127h-.66c-.959 0-1.742-.75-1.797-1.694L21 288v-6.6c0-.959.75-1.742 1.694-1.797l.106-.003H30h-7.2zm4.8 1.2h-2.4v1.8h2.4v-1.8z"/>
                    </g>
                    <path fill="#F37A8A" d="M87.6 97.2H160.2V104.4H87.6z" mask="url(#2t10vgcndp)" opacity=".1"/>
                    <path fill="#F0F0F1" d="M19.2 219.6H160.2V229.2H19.2zM97.2 232.2H160.2V241.79999999999998H97.2z" mask="url(#2t10vgcndp)"/>
                    <path fill="#F0F0F1" d="M97.2 312.6H160.2V319.8H97.2z" mask="url(#2t10vgcndp)" opacity=".5"/>
                    <rect width="45" height="12" x="115.2" y="324.6" fill="#F0F0F1" mask="url(#2t10vgcndp)" opacity=".5" rx="6"/>
                    <rect width="38.4" height="12" x="73.2" y="324.6" fill="#F0F0F1" mask="url(#2t10vgcndp)" opacity=".5" rx="6"/>
                    <rect width="33" height="12" x="36.6" y="324.6" fill="#F0F0F1" mask="url(#2t10vgcndp)" opacity=".5" rx="6"/>
                    <rect width="33" height="12" x=".6" y="324.6" fill="#F0F0F1" mask="url(#2t10vgcndp)" opacity=".5" rx="6"/>
                    <rect width="6" height="6" x="19.2" y="249.6" fill="#F9BC00" mask="url(#2t10vgcndp)" rx="3"/>
                    <rect width="6" height="6" x="26.4" y="249.6" fill="#F9BC00" mask="url(#2t10vgcndp)" rx="3"/>
                    <rect width="6" height="6" x="33.6" y="249.6" fill="#F9BC00" mask="url(#2t10vgcndp)" rx="3"/>
                    <rect width="6" height="6" x="40.8" y="249.6" fill="#F9BC00" mask="url(#2t10vgcndp)" rx="3"/>
                    <rect width="6" height="6" x="48" y="249.6" fill="#F0F0F0" mask="url(#2t10vgcndp)" rx="3"/>
                    <path fill="#F0F0F1" d="M10.2 10.2L168 10.2 168 87 10.2 87z" mask="url(#2t10vgcndp)" opacity=".5"/>
                    <rect width="114" height="21" x="46.8" y="57.6" fill="#FFF" mask="url(#2t10vgcndp)" rx="3"/>
                    <rect width="21" height="21" x="17.4" y="57.6" fill="#F0F0F1" mask="url(#2t10vgcndp)" opacity=".5" rx="3"/>
                    <g fill="#EE384E" mask="url(#2t10vgcndp)">
                        <path d="M97.91 43.17h2.945v-3.863h-2.946c-.508 0-.982.467-.982.966v1.932c0 .499.474.966.982.966zm11.78 0h2.946v-3.863h-2.945c-.508 0-.982.467-.982.966v1.932c0 .499.474.966.982.966zm-6.872-5.311v6.76c0 .214-.273.483-.49.483l-.982.01c-.218 0-.491-.28-.491-.492v-.322l-.446.526c-.136.181-.47.278-.7.278h-1.8c-1.58 0-2.945-1.347-2.945-2.897v-1.932c0-1.55 1.366-2.897 2.945-2.897h4.418c.217 0 .491.27.491.483zm11.782 0v6.76c0 .214-.274.483-.49.483l-.983.01c-.217 0-.49-.28-.49-.492v-.322l-.446.526c-.136.181-.47.278-.7.278h-1.8c-1.58 0-2.946-1.347-2.946-2.897v-1.932c0-1.55 1.367-2.897 2.946-2.897h4.418c.217 0 .491.27.491.483zm-32.727 1.448h-2.946c-.508 0-.982.467-.982.966v1.932c0 .499.474.966.982.966h2.946v-3.864zm1.963-1.448v7.404c0 1.55-1.366 2.737-2.945 2.737h-1.518c-.226 0-.438-.104-.575-.28l-.864-1.123c-.143-.186-.063-.529.175-.529h2.782c.508 0 .982-.306.982-.805v-.16h-2.946c-1.58 0-2.945-1.348-2.945-2.898v-1.932c0-1.55 1.366-2.897 2.945-2.897h1.8c.226 0 .471.178.63.322l.516.482v-.321c0-.213.274-.483.49-.483h.982c.218 0 .491.27.491.483zm-17.672 4.346c0 .499.473.966.981.966h2.946v-3.864h-2.946c-.508 0-.981.467-.981.966v1.932zm5.4-7.405c.217 0 .49.27.49.483v9.337c0 .213-.273.482-.49.482h-.982c-.217 0-.491-.27-.491-.482v-.322l-.515.541c-.14.153-.408.263-.63.263h-1.8c-1.58 0-2.946-1.347-2.946-2.897v-1.917c0-1.55 1.366-2.912 2.945-2.912h2.946v-2.093c0-.213.274-.483.49-.483h.983zm20.29 6.439l2.733-3.403c.152-.185.018-.461-.224-.461h-1.564c-.118 0-.23.052-.304.142l-2.768 3.4v-5.634c0-.213-.273-.483-.49-.483h-.982c-.218 0-.491.27-.491.483v9.337c0 .213.273.482.49.482h.982c.218 0 .491-.27.491-.482V41.56l2.77 3.407c.074.092.186.145.306.145h1.561c.242 0 .377-.276.225-.462l-2.734-3.412zM85.31 34.8c-.217 0-.49.27-.49.483v.966c0 .213.273.483.49.483h.982c.217 0 .49-.27.49-.483v-.966c0-.213-.273-.483-.49-.483h-.982zm0 2.576c-.217 0-.49.27-.49.483v6.76c0 .214.35.494.567.494l.905-.01c.217 0 .49-.27.49-.483v-6.761c0-.214-.273-.483-.49-.483h-.982zM73.527 34.8c-.217 0-.49.27-.49.483v.966c0 .213.273.483.49.483h.982c.217 0 .491-.27.491-.483v-.966c0-.213-.274-.483-.49-.483h-.983zm0 2.576c-.217 0-.49.27-.49.483v6.76c0 .214.273.483.49.483h.982c.217 0 .491-.27.491-.482v-6.761c0-.214-.274-.483-.49-.483h-.983zm32.237-2.093v9.337c0 .213-.274.482-.491.482h-.982c-.217 0-.491-.27-.491-.482v-9.337c0-.213.274-.483.49-.483h.983c.217 0 .49.27.49.483z"/>
                    </g>
                    <g fill="#424750" fill-rule="nonzero" mask="url(#2t10vgcndp)" opacity=".5">
                        <path d="M157.2 43.2v1.2h-8.4v-1.2h8.4zm0-3v1.2h-8.4v-1.2h8.4zm0-3v1.2h-8.4v-1.2h8.4z"/>
                    </g>
                    <g fill="#424750" fill-rule="nonzero" mask="url(#2t10vgcndp)" opacity=".5">
                        <path d="M25.2 34.2c3.314 0 6 2.686 6 6 0 2.874-2.033 5.318-4.799 5.88l-.702 1.053c-.237.356-.76.356-.998 0l-.702-1.053c-2.766-.562-4.799-3.006-4.799-5.88 0-3.314 2.686-6 6-6zm0 1.2c-2.651 0-4.8 2.149-4.8 4.8 0 2.372 1.731 4.378 4.05 4.742.165.026.312.12.406.26l.344.516.344-.516c.094-.14.24-.234.407-.26C28.269 44.578 30 42.572 30 40.2c0-2.651-2.149-4.8-4.8-4.8zm.6 7.2v1.2h-1.2v-1.2h1.2zm0-6c.994 0 1.8.806 1.8 1.8v.558c0 .602-.3 1.164-.802 1.497l-.73.488c-.168.111-.268.299-.268.5V42h-1.2v-.558c0-.602.3-1.164.802-1.497l.73-.488c.168-.111.268-.299.268-.5V38.4c0-.331-.269-.6-.6-.6h-1.2c-.331 0-.6.269-.6.6v.6h-1.2v-.6c0-.994.806-1.8 1.8-1.8h1.2z"/>
                    </g>
                </g>
            </g>
        </g>
        <path fill="url(#4rp5gvongs)" d="M0 293L809 293 808.925 593 0 593z" mask="url(#g7wqrnh67b)" transform="matrix(1 0 0 -1 0 886)"/>
    </g>
</svg>
