<svg xmlns="http://www.w3.org/2000/svg" width="32" height="33" viewBox="0 0 32 33">
    <g fill="none" fill-rule="evenodd" transform="translate(0 .03)">
        <path fill="#FFF" d="M0 0H32V32H0z"/>
        <path fill="#A63489" fill-rule="nonzero" d="M22 6.267c0-.148.12-.267.267-.267h.4c1.065 0 1.935-.833 1.996-1.882L24.667 4v-.4c0-.147.12-.267.266-.267h.8c.13 0 .237.092.262.213L26 3.6V4l.003.118c.059 1.01.868 1.82 1.88 1.879L28 6h.4c.129 0 .236.091.261.213l.006.054v.8c0 .147-.12.266-.267.266H28c-1.065 0-1.936.833-1.997 1.883L26 9.333v.4c0 .148-.12.267-.267.267h-.8c-.129 0-.236-.091-.26-.213l-.006-.054v-.4l-.004-.117c-.058-1.011-.868-1.82-1.879-1.88l-.117-.003h-.4c-.13 0-.237-.091-.262-.213L22 7.067v-.8zm3.333-.996l-.028.053c-.327.578-.842 1.05-1.403 1.343.578.302 1.107.793 1.432 1.395.324-.602.853-1.093 1.43-1.396-.529-.276-1.018-.712-1.346-1.246l-.085-.149z"/>
        <g fill-rule="nonzero" transform="translate(2.667 4)">
            <path fill="#424750" d="M20.471 18.862l5.334 5.333-.943.943-5.333-5.333.942-.943zm-2 2l3.334 3.333-.943.943-3.333-3.333.942-.943zM2.483.535c3.22-.358 6.429.768 8.72 3.059l.839.839c.905-.614 2.068-.75 3.103-.338l.147.063 4.775 2.17c.67.305.967 1.096.662 1.766-.05.11-.114.21-.19.303l-.081.088-1.98 1.98 4.137 1.93c.389.182.502.671.253 1.003l-.054.064-8.667 9c-.295.306-.789.26-1.025-.077l-.044-.071-2.11-3.956-2.509 2.51-.078.073c-.107.091-.229.165-.36.219-.681.279-1.46-.048-1.739-.73l-1.949-4.763-.057-.15c-.39-1.101-.173-2.323.56-3.22L3.73 11.224C1.357 8.93.18 5.664.546 2.382L.671 1.26C.705.95.95.705 1.26.67zM22.47 16.862l3.334 3.333-.943.943-3.333-3.333.942-.943zm-8.211-1.993l-2.332 2.455 1.895 3.552 3.16-3.283-2.723-2.724zm-8.46-1.64c-.403.555-.497 1.285-.233 1.933l1.95 4.764 2.559-2.56zm11.686-1.755l-2.307 2.429 2.729 2.729 3.297-3.423-3.72-1.735zM10.26 4.537C8.256 2.532 5.448 1.547 2.63 1.86l-.693.077-.066.592c-.31 2.787.65 5.56 2.605 7.559l.18.18 6.324 6.118 5.422-5.707zm2.755.868l4.318 4.319 2.182-2.182-4.775-2.17c-.56-.255-1.194-.233-1.725.033z"/>
            <circle cx="7.333" cy="7.333" r="2" fill="#ADD3A6"/>
        </g>
        <rect width="2.667" height="2.667" x="3.333" y="22.667" fill="#ADD3A6" fill-rule="nonzero" rx="1"/>
        <rect width="2" height="2" x="18.667" y="3.333" fill="#ADD3A6" fill-rule="nonzero" rx="1"/>
        <rect width="2" height="2" x="12" y="26.667" fill="#ADD3A6" fill-rule="nonzero" rx="1"/>
    </g>
</svg>
