<svg xmlns="http://www.w3.org/2000/svg" width="32" height="32" viewBox="0 0 32 32">
    <g fill="none" fill-rule="evenodd">
        <path fill="#FFF" d="M0 0H32V32H0z"/>
        <path fill="#ADD3A6" fill-rule="nonzero" d="M20 12.667V14h-2l.004 1.333h1.318v1.334l-1.315-.001.003 1.328 1.984-.018.012 1.334-2.655.023c-.345.003-.631-.256-.668-.592l-.004-.073-.012-5.333c-.001-.343.256-.625.588-.664l.078-.004H20zm-4 0V14h-2l.004 1.333h1.318v1.334l-1.315-.001.003 1.328 1.984-.018.012 1.334-2.655.023c-.345.003-.631-.256-.668-.592l-.004-.073-.012-5.333c-.001-.343.256-.625.588-.664l.078-.004H16zm-8.667 0V14h-2v1.333h1.323v1.334l-1.323-.001v2.667H4v-6c0-.342.257-.623.589-.662l.078-.004h2.666zm2.667 0c1.105 0 2 .895 2 2 0 .665-.325 1.255-.825 1.619l-.106.07.048.05c.518.562.845 1.301.88 2.116l.003.145v.666h-1.333v-.666c0-.825-.5-1.533-1.212-1.839l-.122-.048v2.553H8v-6c0-.342.257-.623.589-.662l.078-.004H10zM10 14h-.667v1.333H10c.368 0 .667-.298.667-.666 0-.342-.258-.624-.59-.663L10 14z"/>
        <path fill="#A63489" fill-rule="nonzero" d="M1.333 8.267c0-.148.12-.267.267-.267H2c1.065 0 1.936-.833 1.997-1.882L4 6v-.4c0-.147.12-.267.267-.267h.8c.129 0 .236.092.26.213l.006.054V6l.004.118c.058 1.01.868 1.82 1.879 1.879L7.333 8h.4c.13 0 .237.091.262.213L8 8.267v.8c0 .147-.12.266-.267.266h-.4c-1.065 0-1.935.833-1.996 1.883l-.004.117v.4c0 .148-.12.267-.266.267h-.8c-.13 0-.237-.091-.262-.213L4 11.733v-.4l-.003-.117c-.059-1.011-.868-1.82-1.88-1.88L2 9.334h-.4c-.129 0-.236-.091-.261-.213l-.006-.053v-.8zm3.333-.996l-.028.053c-.327.578-.842 1.05-1.403 1.343.578.302 1.107.793 1.432 1.395.324-.602.853-1.093 1.431-1.396-.53-.276-1.018-.712-1.347-1.246l-.085-.149z"/>
        <path fill="#424750" fill-rule="nonzero" d="M19.333 8c1.6 0 2.935 1.125 3.259 2.627l.007.04h1.64c.663 0 1.28.328 1.651.87l.071.112 3.946 6.679c.046.077.075.162.087.25l.006.089v4.666c0 .342-.257.624-.589.663l-.078.004-3.417.001c-.297 1.15-1.34 1.999-2.583 1.999-1.242 0-2.286-.85-2.582-1.999h-9.502C10.953 25.151 9.91 26 8.667 26c-1.243 0-2.286-.85-2.583-1.999L4.667 24c-.342 0-.624-.257-.663-.589L4 23.333v-2.666h1.333v2h.751c.296-1.15 1.34-2 2.583-2 1.242 0 2.286.85 2.582 2h9.502c.296-1.15 1.34-2 2.582-2 1.243 0 2.287.85 2.583 2h2.75v-1.334h-1.333c-.368 0-.666-.298-.666-.666 0-.369.298-.667.666-.667h1.334l-.001-.667h-5.333c-.342 0-.623-.257-.662-.589l-.004-.077v-4c0-.342.257-.624.589-.663l.077-.004h2.469l-.989-1.672c-.105-.178-.285-.296-.486-.322L24.239 12H22c-.342 0-.624-.257-.662-.589l-.005-.078c0-1.065-.832-1.935-1.882-1.996l-.118-.004H8.667V8h10.666zM8.667 22c-.737 0-1.334.597-1.334 1.333 0 .737.597 1.334 1.334 1.334.736 0 1.333-.597 1.333-1.334C10 22.597 9.403 22 8.667 22zm14.666 0c-.736 0-1.333.597-1.333 1.333 0 .737.597 1.334 1.333 1.334.737 0 1.334-.597 1.334-1.334 0-.736-.597-1.333-1.334-1.333zm3.256-6.667H24V18h4.165l-1.576-2.667z"/>
    </g>
</svg>
